# Blender 4.3.2
# www.blender.org
mtllib table.mtl
o Cube
v 3.115630 5.232038 -5.895867
v 3.115630 4.783087 -5.895867
v 3.115630 5.232038 5.895867
v 3.114440 4.775675 5.887973
v -3.115630 5.232038 -5.895867
v -3.115630 4.783087 -5.895867
v -3.115630 5.232038 5.895867
v -3.116819 4.775675 5.887973
v -3.115630 4.783087 -5.275249
v -3.115630 4.783087 -4.654632
v -3.115630 4.783087 -4.034014
v -3.115630 4.783087 -3.413397
v -3.115630 4.783087 -2.792779
v -3.115630 4.783087 -2.172161
v -3.115630 4.783087 -1.551544
v -3.115630 4.783087 -0.930926
v -3.115630 4.783087 -0.310309
v -3.115630 4.783087 0.310309
v -3.115630 4.783087 0.930927
v -3.115630 4.783087 1.551544
v -3.115630 4.783087 2.172162
v -3.115630 4.783087 2.792779
v -3.115630 4.783087 3.413397
v -3.115630 4.783087 4.034015
v -3.115630 4.783087 4.654632
v -3.115630 4.783087 5.275250
v 3.115630 5.232038 -5.275249
v 3.115630 5.232038 -4.654632
v 3.115630 5.232038 -4.034014
v 3.115630 5.232038 -3.413397
v 3.115630 5.232038 -2.792779
v 3.115630 5.232038 -2.172161
v 3.115630 5.232038 -1.551544
v 3.115630 5.232038 -0.930926
v 3.115630 5.232038 -0.310309
v 3.115630 5.232038 0.310309
v 3.115630 5.232038 0.930927
v 3.115630 5.232038 1.551544
v 3.115630 5.232038 2.172162
v 3.115630 5.232038 2.792779
v 3.115630 5.232038 3.413397
v 3.115630 5.232038 4.034015
v 3.115630 5.232038 4.654632
v 3.115630 5.232038 5.275250
v -3.115630 5.232038 5.275249
v -3.115630 5.232038 4.654632
v -3.115630 5.232038 4.034014
v -3.115630 5.232038 3.413397
v -3.115630 5.232038 2.792779
v -3.115630 5.232038 2.172161
v -3.115630 5.232038 1.551544
v -3.115630 5.232038 0.930926
v -3.115630 5.232038 0.310309
v -3.115630 5.232038 -0.310309
v -3.115630 5.232038 -0.930927
v -3.115630 5.232038 -1.551544
v -3.115630 5.232038 -2.172162
v -3.115630 5.232038 -2.792779
v -3.115630 5.232038 -3.413397
v -3.115630 5.232038 -4.034015
v -3.115630 5.232038 -4.654632
v -3.115630 5.232038 -5.275250
v 3.115630 4.783087 5.275249
v 3.115630 4.783087 4.654632
v 3.115630 4.783087 4.034014
v 3.115630 4.783087 3.413397
v 3.115630 4.783087 2.792779
v 3.115630 4.783087 2.172161
v 3.115630 4.783087 1.551544
v 3.115630 4.783087 0.930926
v 3.115630 4.783087 0.310309
v 3.115630 4.783087 -0.310309
v 3.115630 4.783087 -0.930927
v 3.115630 4.783087 -1.551544
v 3.115630 4.783087 -2.172162
v 3.115630 4.783087 -2.792779
v 3.115630 4.783087 -3.413397
v 3.115630 4.783087 -4.034015
v 3.115630 4.783087 -4.654632
v 3.115630 4.783087 -5.275250
v 2.423268 4.783087 -5.895867
v 1.730905 4.783087 -5.895867
v 1.038543 4.783087 -5.895867
v 0.346181 4.783087 -5.895867
v -0.346181 4.783087 -5.895867
v -1.038543 4.783087 -5.895867
v -1.730905 4.783087 -5.895867
v -2.423268 4.783087 -5.895867
v 2.423268 5.232038 5.895867
v 1.730905 5.232038 5.895867
v 1.038543 5.232038 5.895867
v 0.346181 5.232038 5.895867
v -0.346181 5.232038 5.895867
v -1.038543 5.232038 5.895867
v -1.730905 5.232038 5.895867
v -2.423268 5.232038 5.895867
v -2.424457 4.775675 5.887973
v -1.732095 4.775675 5.887973
v -1.039733 4.775675 5.887973
v -0.347371 4.775675 5.887973
v 0.344992 4.775675 5.887973
v 1.037354 4.775675 5.887973
v 1.729716 4.775675 5.887973
v 2.422078 4.775675 5.887973
v -2.423268 5.232038 -5.895867
v -1.730905 5.232038 -5.895867
v -1.038543 5.232038 -5.895867
v -0.346181 5.232038 -5.895867
v 0.346181 5.232038 -5.895867
v 1.038543 5.232038 -5.895867
v 1.730905 5.232038 -5.895867
v 2.423268 5.232038 -5.895867
v 2.423268 4.783087 -5.275250
v 1.730905 4.783087 -5.275250
v 1.038543 4.783087 -5.275250
v 0.346181 4.783087 -5.275250
v -0.346181 4.783087 -5.275250
v -1.038543 4.783087 -5.275250
v -1.730905 4.783087 -5.275250
v -2.423268 4.783087 -5.275250
v 2.423268 4.783087 -4.654632
v 1.730905 4.783087 -4.654632
v 1.038543 4.783087 -4.654632
v 0.346181 4.783087 -4.654632
v -0.346181 4.783087 -4.654632
v -1.038543 4.783087 -4.654632
v -1.730905 4.783087 -4.654632
v -2.423268 4.783087 -4.654632
v 2.423268 4.783087 -4.034015
v 1.730905 4.783087 -4.034015
v 1.038543 4.783087 -4.034015
v 0.346181 4.783087 -4.034015
v -0.346181 4.783087 -4.034015
v -1.038543 4.783087 -4.034015
v -1.730905 4.783087 -4.034015
v -2.423268 4.783087 -4.034015
v 2.423268 4.783087 -3.413397
v 1.730905 4.783087 -3.413397
v 1.038543 4.783087 -3.413397
v 0.346181 4.783087 -3.413397
v -0.346181 4.783087 -3.413397
v -1.038543 4.783087 -3.413397
v -1.730905 4.783087 -3.413397
v -2.423268 4.783087 -3.413397
v 2.423268 4.783087 -2.792779
v 1.730905 4.783087 -2.792779
v 1.038543 4.783087 -2.792779
v 0.346181 4.783087 -2.792779
v -0.346181 4.783087 -2.792779
v -1.038543 4.783087 -2.792779
v -1.730905 4.783087 -2.792779
v -2.423268 4.783087 -2.792779
v 2.423268 4.783087 -2.172162
v 1.730905 4.783087 -2.172162
v 1.038543 4.783087 -2.172162
v 0.346181 4.783087 -2.172162
v -0.346181 4.783087 -2.172162
v -1.038543 4.783087 -2.172161
v -1.730905 4.783087 -2.172161
v -2.423268 4.783087 -2.172161
v 2.423268 4.783087 -1.551544
v 1.730905 4.783087 -1.551544
v 1.038543 4.783087 -1.551544
v 0.346181 4.783087 -1.551544
v -0.346181 4.783087 -1.551544
v -1.038543 4.783087 -1.551544
v -1.730905 4.783087 -1.551544
v -2.423268 4.783087 -1.551544
v 2.423268 4.783087 -0.930927
v 1.730905 4.783087 -0.930927
v 1.038543 4.783087 -0.930926
v 0.346181 4.783087 -0.930926
v -0.346181 4.783087 -0.930926
v -1.038543 4.783087 -0.930926
v -1.730905 4.783087 -0.930926
v -2.423268 4.783087 -0.930926
v 2.423268 4.783087 -0.310309
v 1.730905 4.783087 -0.310309
v 1.038543 4.783087 -0.310309
v 0.346181 4.783087 -0.310309
v -0.346181 4.783087 -0.310309
v -1.038543 4.783087 -0.310309
v -1.730905 4.783087 -0.310309
v -2.423268 4.783087 -0.310309
v 2.423268 4.783087 0.310309
v 1.730905 4.783087 0.310309
v 1.038543 4.783087 0.310309
v 0.346181 4.783087 0.310309
v -0.346181 4.783087 0.310309
v -1.038543 4.783087 0.310309
v -1.730905 4.783087 0.310309
v -2.423268 4.783087 0.310309
v 2.423268 4.783087 0.930926
v 1.730905 4.783087 0.930926
v 1.038543 4.783087 0.930926
v 0.346181 4.783087 0.930926
v -0.346181 4.783087 0.930927
v -1.038543 4.783087 0.930927
v -1.730905 4.783087 0.930927
v -2.423268 4.783087 0.930927
v 2.423268 4.783087 1.551544
v 1.730905 4.783087 1.551544
v 1.038543 4.783087 1.551544
v 0.346181 4.783087 1.551544
v -0.346181 4.783087 1.551544
v -1.038543 4.783087 1.551544
v -1.730905 4.783087 1.551544
v -2.423268 4.783087 1.551544
v 2.423268 4.783087 2.172161
v 1.730905 4.783087 2.172161
v 1.038543 4.783087 2.172161
v 0.346181 4.783087 2.172161
v -0.346181 4.783087 2.172161
v -1.038543 4.783087 2.172161
v -1.730905 4.783087 2.172162
v -2.423268 4.783087 2.172162
v 2.423268 4.783087 2.792779
v 1.730905 4.783087 2.792779
v 1.038543 4.783087 2.792779
v 0.346181 4.783087 2.792779
v -0.346181 4.783087 2.792779
v -1.038543 4.783087 2.792779
v -1.730905 4.783087 2.792779
v -2.423268 4.783087 2.792779
v 2.423268 4.783087 3.413397
v 1.730905 4.783087 3.413397
v 1.038543 4.783087 3.413397
v 0.346181 4.783087 3.413397
v -0.346181 4.783087 3.413397
v -1.038543 4.783087 3.413397
v -1.730905 4.783087 3.413397
v -2.423268 4.783087 3.413397
v 2.423268 4.783087 4.034014
v 1.730905 4.783087 4.034014
v 1.038543 4.783087 4.034014
v 0.346181 4.783087 4.034014
v -0.346181 4.783087 4.034014
v -1.038543 4.783087 4.034014
v -1.730905 4.783087 4.034014
v -2.423268 4.783087 4.034015
v 2.423268 4.783087 4.654632
v 1.730905 4.783087 4.654632
v 1.038543 4.783087 4.654632
v 0.346181 4.783087 4.654632
v -0.346181 4.783087 4.654632
v -1.038543 4.783087 4.654632
v -1.730905 4.783087 4.654632
v -2.423268 4.783087 4.654632
v 2.423268 4.783087 5.275249
v 1.730905 4.783087 5.275249
v 1.038543 4.783087 5.275249
v 0.346181 4.783087 5.275249
v -0.346181 4.783087 5.275249
v -1.038543 4.783087 5.275249
v -1.730905 4.783087 5.275249
v -2.423268 4.783087 5.275250
v -2.423268 5.232038 -5.275250
v -1.730905 5.232038 -5.275250
v -1.038543 5.232038 -5.275250
v -0.346181 5.232038 -5.275250
v 0.346181 5.232038 -5.275250
v 1.038543 5.232038 -5.275250
v 1.730905 5.232038 -5.275250
v 2.423268 5.232038 -5.275250
v -2.423268 5.232038 -4.654632
v -1.730905 5.232038 -4.654632
v -1.038543 5.232038 -4.654632
v -0.346181 5.232038 -4.654632
v 0.346181 5.232038 -4.654632
v 1.038543 5.232038 -4.654632
v 1.730905 5.232038 -4.654632
v 2.423268 5.232038 -4.654632
v -2.423268 5.232038 -4.034015
v -1.730905 5.232038 -4.034015
v -1.038543 5.232038 -4.034015
v -0.346181 5.232038 -4.034015
v 0.346181 5.232038 -4.034015
v 1.038543 5.232038 -4.034015
v 1.730905 5.232038 -4.034015
v 2.423268 5.232038 -4.034015
v -2.423268 5.232038 -3.413397
v -1.730905 5.232038 -3.413397
v -1.038543 5.232038 -3.413397
v -0.346181 5.232038 -3.413397
v 0.346181 5.232038 -3.413397
v 1.038543 5.232038 -3.413397
v 1.730905 5.232038 -3.413397
v 2.423268 5.232038 -3.413397
v -2.423268 5.232038 -2.792779
v -1.730905 5.232038 -2.792779
v -1.038543 5.232038 -2.792779
v -0.346181 5.232038 -2.792779
v 0.346181 5.232038 -2.792779
v 1.038543 5.232038 -2.792779
v 1.730905 5.232038 -2.792779
v 2.423268 5.232038 -2.792779
v -2.423268 5.232038 -2.172162
v -1.730905 5.232038 -2.172162
v -1.038543 5.232038 -2.172162
v -0.346181 5.232038 -2.172162
v 0.346181 5.232038 -2.172162
v 1.038543 5.232038 -2.172161
v 1.730905 5.232038 -2.172161
v 2.423268 5.232038 -2.172161
v -2.423268 5.232038 -1.551544
v -1.730905 5.232038 -1.551544
v -1.038543 5.232038 -1.551544
v -0.346181 5.232038 -1.551544
v 0.346181 5.232038 -1.551544
v 1.038543 5.232038 -1.551544
v 1.730905 5.232038 -1.551544
v 2.423268 5.232038 -1.551544
v -2.423268 5.232038 -0.930927
v -1.730905 5.232038 -0.930927
v -1.038543 5.232038 -0.930926
v -0.346181 5.232038 -0.930926
v 0.346181 5.232038 -0.930926
v 1.038543 5.232038 -0.930926
v 1.730905 5.232038 -0.930926
v 2.423268 5.232038 -0.930926
v -2.423268 5.232038 -0.310309
v -1.730905 5.232038 -0.310309
v -1.038543 5.232038 -0.310309
v -0.346181 5.232038 -0.310309
v 0.346181 5.232038 -0.310309
v 1.038543 5.232038 -0.310309
v 1.730905 5.232038 -0.310309
v 2.423268 5.232038 -0.310309
v -2.423268 5.232038 0.310309
v -1.730905 5.232038 0.310309
v -1.038543 5.232038 0.310309
v -0.346181 5.232038 0.310309
v 0.346181 5.232038 0.310309
v 1.038543 5.232038 0.310309
v 1.730905 5.232038 0.310309
v 2.423268 5.232038 0.310309
v -2.423268 5.232038 0.930926
v -1.730905 5.232038 0.930926
v -1.038543 5.232038 0.930926
v -0.346181 5.232038 0.930926
v 0.346181 5.232038 0.930927
v 1.038543 5.232038 0.930927
v 1.730905 5.232038 0.930927
v 2.423268 5.232038 0.930927
v -2.423268 5.232038 1.551544
v -1.730905 5.232038 1.551544
v -1.038543 5.232038 1.551544
v -0.346181 5.232038 1.551544
v 0.346181 5.232038 1.551544
v 1.038543 5.232038 1.551544
v 1.730905 5.232038 1.551544
v 2.423268 5.232038 1.551544
v -2.423268 5.232038 2.172161
v -1.730905 5.232038 2.172161
v -1.038543 5.232038 2.172161
v -0.346181 5.232038 2.172161
v 0.346181 5.232038 2.172161
v 1.038543 5.232038 2.172161
v 1.730905 5.232038 2.172162
v 2.423268 5.232038 2.172162
v -2.423268 5.232038 2.792779
v -1.730905 5.232038 2.792779
v -1.038543 5.232038 2.792779
v -0.346181 5.232038 2.792779
v 0.346181 5.232038 2.792779
v 1.038543 5.232038 2.792779
v 1.730905 5.232038 2.792779
v 2.423268 5.232038 2.792779
v -2.423268 5.232038 3.413397
v -1.730905 5.232038 3.413397
v -1.038543 5.232038 3.413397
v -0.346181 5.232038 3.413397
v 0.346181 5.232038 3.413397
v 1.038543 5.232038 3.413397
v 1.730905 5.232038 3.413397
v 2.423268 5.232038 3.413397
v -2.423268 5.232038 4.034014
v -1.730905 5.232038 4.034014
v -1.038543 5.232038 4.034014
v -0.346181 5.232038 4.034014
v 0.346181 5.232038 4.034014
v 1.038543 5.232038 4.034014
v 1.730905 5.232038 4.034014
v 2.423268 5.232038 4.034015
v -2.423268 5.232038 4.654632
v -1.730905 5.232038 4.654632
v -1.038543 5.232038 4.654632
v -0.346181 5.232038 4.654632
v 0.346181 5.232038 4.654632
v 1.038543 5.232038 4.654632
v 1.730905 5.232038 4.654632
v 2.423268 5.232038 4.654632
v -2.423268 5.232038 5.275249
v -1.730905 5.232038 5.275249
v -1.038543 5.232038 5.275249
v -0.346181 5.232038 5.275249
v 0.346181 5.232038 5.275249
v 1.038543 5.232038 5.275249
v 1.730905 5.232038 5.275249
v 2.423268 5.232038 5.275250
v -3.115630 -0.361049 5.244886
v -3.116819 -0.368461 5.857609
v -2.423268 -0.361049 -5.926231
v -3.115630 -0.361049 -5.926231
v 2.422078 -0.368461 5.857609
v 3.114440 -0.368461 5.857609
v 3.115630 -0.361049 -5.305614
v 3.115630 -0.361049 -5.926231
v -3.115630 -0.361049 -5.305614
v 3.115630 -0.361049 5.244885
v -2.423268 -0.361049 -5.305614
v -2.423268 -0.361049 5.244886
v 2.423268 -0.361049 -5.926231
v -2.424457 -0.368461 5.857609
v 2.423268 -0.361049 -5.305614
v 2.423268 -0.361049 5.244885
vn -0.0000 1.0000 -0.0000
vn -0.0000 -0.0173 0.9999
vn -1.0000 -0.0000 -0.0000
vn -0.0000 0.0059 -1.0000
vn 1.0000 -0.0026 0.0019
vn -0.0000 -0.0000 -1.0000
vn 1.0000 -0.0000 -0.0000
vn -0.0000 -0.0059 1.0000
vn -0.0000 -1.0000 -0.0000
vn -1.0000 0.0026 -0.0019
vn -1.0000 -0.0000 -0.0019
vn 1.0000 -0.0000 0.0019
vn -0.0000 -0.9999 -0.0121
vt 0.875000 0.736842
vt 0.847222 0.750000
vt 0.847222 0.736842
vt 0.375000 0.972222
vt 0.625000 1.000000
vt 0.375000 1.000000
vt 0.625000 0.236842
vt 0.375000 0.250000
vt 0.375000 0.236842
vt 0.152778 0.736842
vt 0.125000 0.736842
vt 0.375000 0.736842
vt 0.625000 0.750000
vt 0.375000 0.750000
vt 0.625000 0.472222
vt 0.375000 0.500000
vt 0.375000 0.472222
vt 0.625000 0.500000
vt 0.375000 0.513158
vt 0.625000 0.513158
vt 0.375000 0.526316
vt 0.625000 0.526316
vt 0.375000 0.539474
vt 0.625000 0.539474
vt 0.375000 0.552632
vt 0.625000 0.552632
vt 0.375000 0.565790
vt 0.625000 0.565790
vt 0.375000 0.578947
vt 0.625000 0.578947
vt 0.375000 0.592105
vt 0.625000 0.592105
vt 0.375000 0.605263
vt 0.625000 0.605263
vt 0.375000 0.618421
vt 0.625000 0.618421
vt 0.375000 0.631579
vt 0.625000 0.631579
vt 0.375000 0.644737
vt 0.625000 0.644737
vt 0.375000 0.657895
vt 0.625000 0.657895
vt 0.375000 0.671053
vt 0.625000 0.671053
vt 0.375000 0.684211
vt 0.625000 0.684211
vt 0.375000 0.697369
vt 0.625000 0.697369
vt 0.375000 0.710526
vt 0.625000 0.710526
vt 0.375000 0.723684
vt 0.625000 0.723684
vt 0.375000 0.777778
vt 0.347222 0.526316
vt 0.347222 0.513158
vt 0.347222 0.539474
vt 0.347222 0.552632
vt 0.347222 0.565790
vt 0.347222 0.578947
vt 0.347222 0.592105
vt 0.347222 0.605263
vt 0.347222 0.618421
vt 0.347222 0.631579
vt 0.347222 0.644737
vt 0.347222 0.657895
vt 0.347222 0.671053
vt 0.347222 0.684211
vt 0.347222 0.697369
vt 0.347222 0.710526
vt 0.347222 0.723684
vt 0.347222 0.736842
vt 0.625000 0.000000
vt 0.375000 0.013158
vt 0.375000 0.000000
vt 0.625000 0.013158
vt 0.375000 0.026316
vt 0.625000 0.026316
vt 0.375000 0.039474
vt 0.625000 0.039474
vt 0.375000 0.052632
vt 0.625000 0.052632
vt 0.375000 0.065789
vt 0.625000 0.065789
vt 0.375000 0.078947
vt 0.625000 0.078947
vt 0.375000 0.092105
vt 0.625000 0.092105
vt 0.375000 0.105263
vt 0.625000 0.105263
vt 0.375000 0.118421
vt 0.625000 0.118421
vt 0.375000 0.131579
vt 0.625000 0.131579
vt 0.375000 0.144737
vt 0.625000 0.144737
vt 0.375000 0.157895
vt 0.625000 0.157895
vt 0.375000 0.171053
vt 0.625000 0.171053
vt 0.375000 0.184211
vt 0.625000 0.184211
vt 0.375000 0.197368
vt 0.625000 0.197368
vt 0.375000 0.210526
vt 0.625000 0.210526
vt 0.375000 0.223684
vt 0.625000 0.223684
vt 0.875000 0.500000
vt 0.847222 0.513158
vt 0.847222 0.500000
vt 0.875000 0.513158
vt 0.847222 0.526316
vt 0.875000 0.526316
vt 0.847222 0.539474
vt 0.875000 0.539474
vt 0.847222 0.552632
vt 0.875000 0.552632
vt 0.847222 0.565790
vt 0.875000 0.565790
vt 0.847222 0.578947
vt 0.875000 0.578947
vt 0.847222 0.592105
vt 0.875000 0.592105
vt 0.847222 0.605263
vt 0.875000 0.605263
vt 0.847222 0.618421
vt 0.875000 0.618421
vt 0.847222 0.631579
vt 0.875000 0.631579
vt 0.847222 0.644737
vt 0.875000 0.644737
vt 0.847222 0.657895
vt 0.875000 0.657895
vt 0.847222 0.671053
vt 0.875000 0.671053
vt 0.847222 0.684211
vt 0.875000 0.684211
vt 0.847222 0.697369
vt 0.875000 0.697369
vt 0.847222 0.710526
vt 0.875000 0.710526
vt 0.847222 0.723684
vt 0.875000 0.723684
vt 0.652778 0.723684
vt 0.625000 0.736842
vt 0.680556 0.723684
vt 0.652778 0.736842
vt 0.708333 0.723684
vt 0.680556 0.736842
vt 0.736111 0.723684
vt 0.708333 0.736842
vt 0.763889 0.723684
vt 0.736111 0.736842
vt 0.791667 0.723684
vt 0.763889 0.736842
vt 0.819444 0.723684
vt 0.791667 0.736842
vt 0.819444 0.736842
vt 0.652778 0.710526
vt 0.680556 0.710526
vt 0.708333 0.710526
vt 0.736111 0.710526
vt 0.763889 0.710526
vt 0.791667 0.710526
vt 0.819444 0.710526
vt 0.652778 0.697369
vt 0.680556 0.697369
vt 0.736111 0.697369
vt 0.708333 0.697369
vt 0.763889 0.697369
vt 0.791667 0.697369
vt 0.819444 0.697369
vt 0.652778 0.684211
vt 0.680556 0.684211
vt 0.736111 0.684211
vt 0.708333 0.684211
vt 0.763889 0.684210
vt 0.819444 0.684211
vt 0.791667 0.684211
vt 0.652778 0.671053
vt 0.680555 0.671053
vt 0.708333 0.671053
vt 0.736111 0.671053
vt 0.763889 0.671053
vt 0.791667 0.671053
vt 0.819444 0.671053
vt 0.652778 0.657895
vt 0.708333 0.657895
vt 0.680555 0.657895
vt 0.763889 0.657895
vt 0.736111 0.657895
vt 0.791667 0.657895
vt 0.819444 0.657895
vt 0.680556 0.644737
vt 0.652778 0.644737
vt 0.708333 0.644737
vt 0.736111 0.644737
vt 0.763889 0.644737
vt 0.791667 0.644737
vt 0.819444 0.644737
vt 0.652778 0.631579
vt 0.680556 0.631579
vt 0.708333 0.631579
vt 0.736111 0.631579
vt 0.763889 0.631579
vt 0.791667 0.631579
vt 0.819444 0.631579
vt 0.652778 0.618421
vt 0.680556 0.618421
vt 0.708333 0.618421
vt 0.736111 0.618421
vt 0.763889 0.618421
vt 0.791667 0.618421
vt 0.819444 0.618421
vt 0.652778 0.605263
vt 0.680556 0.605263
vt 0.708333 0.605263
vt 0.736111 0.605263
vt 0.763889 0.605263
vt 0.791667 0.605263
vt 0.819444 0.605263
vt 0.652778 0.592105
vt 0.708333 0.592105
vt 0.680555 0.592105
vt 0.736111 0.592105
vt 0.763889 0.592105
vt 0.791667 0.592105
vt 0.819444 0.592105
vt 0.652778 0.578947
vt 0.708333 0.578947
vt 0.680556 0.578947
vt 0.763889 0.578947
vt 0.736111 0.578947
vt 0.791667 0.578947
vt 0.819444 0.578947
vt 0.652778 0.565790
vt 0.708333 0.565790
vt 0.680556 0.565790
vt 0.763889 0.565790
vt 0.736111 0.565790
vt 0.819444 0.565790
vt 0.791667 0.565790
vt 0.652778 0.552632
vt 0.708333 0.552632
vt 0.680556 0.552632
vt 0.736111 0.552632
vt 0.763889 0.552632
vt 0.791667 0.552632
vt 0.819444 0.552632
vt 0.652778 0.539474
vt 0.680556 0.539474
vt 0.736111 0.539474
vt 0.708333 0.539474
vt 0.763889 0.539474
vt 0.791667 0.539474
vt 0.819444 0.539474
vt 0.652778 0.526316
vt 0.680556 0.526316
vt 0.708333 0.526316
vt 0.736111 0.526316
vt 0.763889 0.526316
vt 0.791667 0.526316
vt 0.819444 0.526316
vt 0.652778 0.513158
vt 0.680556 0.513158
vt 0.708333 0.513158
vt 0.736111 0.513158
vt 0.763889 0.513158
vt 0.791667 0.513158
vt 0.819444 0.513158
vt 0.652778 0.500000
vt 0.680556 0.500000
vt 0.708333 0.500000
vt 0.736111 0.500000
vt 0.763889 0.500000
vt 0.791667 0.500000
vt 0.819444 0.500000
vt 0.152778 0.723684
vt 0.125000 0.723684
vt 0.180556 0.723684
vt 0.208333 0.723684
vt 0.180556 0.736842
vt 0.236111 0.723684
vt 0.208333 0.736842
vt 0.263889 0.723684
vt 0.236111 0.736842
vt 0.291667 0.723684
vt 0.263889 0.736842
vt 0.319444 0.723684
vt 0.291667 0.736842
vt 0.319444 0.736842
vt 0.152778 0.710526
vt 0.125000 0.710526
vt 0.180556 0.710526
vt 0.208333 0.710526
vt 0.236111 0.710526
vt 0.263889 0.710526
vt 0.291667 0.710526
vt 0.319444 0.710526
vt 0.152778 0.697369
vt 0.125000 0.697369
vt 0.180556 0.697369
vt 0.236111 0.697369
vt 0.208333 0.697369
vt 0.263889 0.697369
vt 0.291667 0.697369
vt 0.319444 0.697369
vt 0.152778 0.684211
vt 0.125000 0.684211
vt 0.180556 0.684211
vt 0.236111 0.684211
vt 0.208333 0.684211
vt 0.263889 0.684211
vt 0.319444 0.684211
vt 0.291667 0.684211
vt 0.152778 0.671053
vt 0.125000 0.671053
vt 0.180556 0.671053
vt 0.208333 0.671053
vt 0.236111 0.671053
vt 0.263889 0.671053
vt 0.291667 0.671053
vt 0.319444 0.671053
vt 0.125000 0.657895
vt 0.152778 0.657895
vt 0.208333 0.657895
vt 0.180556 0.657895
vt 0.263889 0.657895
vt 0.236111 0.657895
vt 0.291667 0.657895
vt 0.319444 0.657895
vt 0.125000 0.644737
vt 0.180556 0.644737
vt 0.152778 0.644737
vt 0.208333 0.644737
vt 0.236111 0.644737
vt 0.263889 0.644737
vt 0.291667 0.644737
vt 0.319444 0.644737
vt 0.152778 0.631579
vt 0.125000 0.631579
vt 0.180556 0.631579
vt 0.208333 0.631579
vt 0.236111 0.631579
vt 0.263889 0.631579
vt 0.291667 0.631579
vt 0.319444 0.631579
vt 0.152778 0.618421
vt 0.125000 0.618421
vt 0.180556 0.618421
vt 0.208333 0.618421
vt 0.236111 0.618421
vt 0.263889 0.618421
vt 0.291667 0.618421
vt 0.319444 0.618421
vt 0.152778 0.605263
vt 0.125000 0.605263
vt 0.180556 0.605263
vt 0.208333 0.605263
vt 0.236111 0.605263
vt 0.263889 0.605263
vt 0.291667 0.605263
vt 0.319444 0.605263
vt 0.152778 0.592105
vt 0.125000 0.592105
vt 0.208333 0.592105
vt 0.180556 0.592105
vt 0.236111 0.592105
vt 0.263889 0.592105
vt 0.291667 0.592105
vt 0.319444 0.592105
vt 0.125000 0.578947
vt 0.152778 0.578947
vt 0.208333 0.578947
vt 0.180556 0.578947
vt 0.263889 0.578947
vt 0.236111 0.578947
vt 0.291667 0.578947
vt 0.319444 0.578947
vt 0.125000 0.565789
vt 0.152778 0.565789
vt 0.208333 0.565790
vt 0.180556 0.565790
vt 0.263889 0.565790
vt 0.236111 0.565790
vt 0.319444 0.565790
vt 0.291667 0.565790
vt 0.152778 0.552632
vt 0.125000 0.552632
vt 0.208333 0.552632
vt 0.180556 0.552632
vt 0.236111 0.552632
vt 0.263889 0.552632
vt 0.291667 0.552632
vt 0.319444 0.552632
vt 0.152778 0.539474
vt 0.125000 0.539474
vt 0.180556 0.539474
vt 0.236111 0.539474
vt 0.208333 0.539474
vt 0.263889 0.539474
vt 0.291667 0.539474
vt 0.319444 0.539474
vt 0.152778 0.526316
vt 0.125000 0.526316
vt 0.180556 0.526316
vt 0.208333 0.526316
vt 0.236111 0.526316
vt 0.263889 0.526316
vt 0.291667 0.526316
vt 0.319444 0.526316
vt 0.152778 0.513158
vt 0.125000 0.513158
vt 0.180556 0.513158
vt 0.208333 0.513158
vt 0.236111 0.513158
vt 0.263889 0.513158
vt 0.291667 0.513158
vt 0.319444 0.513158
vt 0.180556 0.500000
vt 0.152778 0.500000
vt 0.208333 0.500000
vt 0.236111 0.500000
vt 0.263889 0.500000
vt 0.291667 0.500000
vt 0.319444 0.500000
vt 0.347222 0.500000
vt 0.625000 0.250000
vt 0.375000 0.277778
vt 0.625000 0.277778
vt 0.375000 0.305556
vt 0.625000 0.305556
vt 0.375000 0.333333
vt 0.625000 0.333333
vt 0.375000 0.361111
vt 0.625000 0.361111
vt 0.375000 0.388889
vt 0.625000 0.388889
vt 0.375000 0.416667
vt 0.625000 0.416667
vt 0.375000 0.444444
vt 0.625000 0.444444
vt 0.180556 0.750000
vt 0.152778 0.750000
vt 0.208333 0.750000
vt 0.236111 0.750000
vt 0.263889 0.750000
vt 0.291667 0.750000
vt 0.319444 0.750000
vt 0.347222 0.750000
vt 0.625000 0.777778
vt 0.625000 0.805556
vt 0.375000 0.805556
vt 0.625000 0.833333
vt 0.375000 0.833333
vt 0.625000 0.861111
vt 0.375000 0.861111
vt 0.625000 0.888889
vt 0.375000 0.888889
vt 0.625000 0.916667
vt 0.375000 0.916667
vt 0.625000 0.944444
vt 0.375000 0.944444
vt 0.625000 0.972222
vt 0.652778 0.750000
vt 0.680556 0.750000
vt 0.708333 0.750000
vt 0.736111 0.750000
vt 0.763889 0.750000
vt 0.791667 0.750000
vt 0.819444 0.750000
vt 0.125000 0.500000
vt 0.125000 0.750000
vt 0.875000 0.750000
s 0
usemtl Material
f 45/1/1 96/2/1 393/3/1
f 97/4/2 7/5/2 8/6/2
f 62/7/3 6/8/3 9/9/3
f 256/10/4 401/11/4 26/11/4
f 63/12/5 3/13/5 4/14/5
f 112/15/6 2/16/6 81/17/6
f 1/18/7 80/19/7 2/16/7
f 27/20/7 79/21/7 80/19/7
f 28/22/7 78/23/7 79/21/7
f 29/24/7 77/25/7 78/23/7
f 30/26/7 76/27/7 77/25/7
f 31/28/7 75/29/7 76/27/7
f 32/30/7 74/31/7 75/29/7
f 33/32/7 73/33/7 74/31/7
f 34/34/7 72/35/7 73/33/7
f 35/36/7 71/37/7 72/35/7
f 36/38/7 70/39/7 71/37/7
f 37/40/7 69/41/7 70/39/7
f 38/42/7 68/43/7 69/41/7
f 39/44/7 67/45/7 68/43/7
f 40/46/7 66/47/7 67/45/7
f 41/48/7 65/49/7 66/47/7
f 42/50/7 64/51/7 65/49/7
f 43/52/7 63/12/7 64/51/7
f 104/53/8 406/14/8 4/14/8
f 80/19/9 121/54/9 113/55/9
f 79/21/9 129/56/9 121/54/9
f 78/23/9 137/57/9 129/56/9
f 77/25/9 145/58/9 137/57/9
f 76/27/9 153/59/9 145/58/9
f 75/29/9 161/60/9 153/59/9
f 74/31/9 169/61/9 161/60/9
f 73/33/9 177/62/9 169/61/9
f 72/35/9 185/63/9 177/62/9
f 71/37/9 193/64/9 185/63/9
f 70/39/9 201/65/9 193/64/9
f 69/41/9 209/66/9 201/65/9
f 68/43/9 217/67/9 209/66/9
f 67/45/9 225/68/9 217/67/9
f 66/47/9 233/69/9 225/68/9
f 65/49/9 241/70/9 233/69/9
f 64/51/9 249/71/9 241/70/9
f 7/72/10 26/73/10 8/74/10
f 45/75/3 25/76/3 26/73/3
f 46/77/3 24/78/3 25/76/3
f 47/79/3 23/80/3 24/78/3
f 48/81/3 22/82/3 23/80/3
f 49/83/3 21/84/3 22/82/3
f 50/85/3 20/86/3 21/84/3
f 51/87/3 19/88/3 20/86/3
f 52/89/3 18/90/3 19/88/3
f 53/91/3 17/92/3 18/90/3
f 54/93/3 16/94/3 17/92/3
f 55/95/3 15/96/3 16/94/3
f 56/97/3 14/98/3 15/96/3
f 57/99/3 13/100/3 14/98/3
f 58/101/3 12/102/3 13/100/3
f 59/103/3 11/104/3 12/102/3
f 60/105/3 10/106/3 11/104/3
f 61/107/3 9/9/3 10/106/3
f 5/108/1 257/109/1 105/110/1
f 62/111/1 265/112/1 257/109/1
f 61/113/1 273/114/1 265/112/1
f 60/115/1 281/116/1 273/114/1
f 59/117/1 289/118/1 281/116/1
f 58/119/1 297/120/1 289/118/1
f 57/121/1 305/122/1 297/120/1
f 56/123/1 313/124/1 305/122/1
f 55/125/1 321/126/1 313/124/1
f 54/127/1 329/128/1 321/126/1
f 53/129/1 337/130/1 329/128/1
f 52/131/1 345/132/1 337/130/1
f 51/133/1 353/134/1 345/132/1
f 50/135/1 361/136/1 353/134/1
f 49/137/1 369/138/1 361/136/1
f 48/139/1 377/140/1 369/138/1
f 47/141/1 385/142/1 377/140/1
f 46/143/1 393/3/1 385/142/1
f 392/144/1 44/145/1 43/52/1
f 391/146/1 400/147/1 392/144/1
f 390/148/1 399/149/1 391/146/1
f 389/150/1 398/151/1 390/148/1
f 388/152/1 397/153/1 389/150/1
f 387/154/1 396/155/1 388/152/1
f 386/156/1 395/157/1 387/154/1
f 385/142/1 394/158/1 386/156/1
f 384/159/1 43/52/1 42/50/1
f 383/160/1 392/144/1 384/159/1
f 382/161/1 391/146/1 383/160/1
f 381/162/1 390/148/1 382/161/1
f 380/163/1 389/150/1 381/162/1
f 379/164/1 388/152/1 380/163/1
f 378/165/1 387/154/1 379/164/1
f 377/140/1 386/156/1 378/165/1
f 376/166/1 42/50/1 41/48/1
f 376/166/1 383/160/1 384/159/1
f 375/167/1 382/161/1 383/160/1
f 373/168/1 382/161/1 374/169/1
f 372/170/1 381/162/1 373/168/1
f 371/171/1 380/163/1 372/170/1
f 370/172/1 379/164/1 371/171/1
f 369/138/1 378/165/1 370/172/1
f 368/173/1 41/48/1 40/46/1
f 368/173/1 375/167/1 376/166/1
f 367/174/1 374/169/1 375/167/1
f 365/175/1 374/169/1 366/176/1
f 364/177/1 373/168/1 365/175/1
f 364/177/1 371/171/1 372/170/1
f 362/178/1 371/171/1 363/179/1
f 361/136/1 370/172/1 362/178/1
f 360/180/1 40/46/1 39/44/1
f 359/181/1 368/173/1 360/180/1
f 358/182/1 367/174/1 359/181/1
f 357/183/1 366/176/1 358/182/1
f 356/184/1 365/175/1 357/183/1
f 355/185/1 364/177/1 356/184/1
f 354/186/1 363/179/1 355/185/1
f 353/134/1 362/178/1 354/186/1
f 38/42/1 360/180/1 39/44/1
f 352/187/1 359/181/1 360/180/1
f 350/188/1 359/181/1 351/189/1
f 350/188/1 357/183/1 358/182/1
f 348/190/1 357/183/1 349/191/1
f 347/192/1 356/184/1 348/190/1
f 346/193/1 355/185/1 347/192/1
f 345/132/1 354/186/1 346/193/1
f 37/40/1 352/187/1 38/42/1
f 343/194/1 352/187/1 344/195/1
f 342/196/1 351/189/1 343/194/1
f 341/197/1 350/188/1 342/196/1
f 340/198/1 349/191/1 341/197/1
f 339/199/1 348/190/1 340/198/1
f 338/200/1 347/192/1 339/199/1
f 337/130/1 346/193/1 338/200/1
f 336/201/1 37/40/1 36/38/1
f 335/202/1 344/195/1 336/201/1
f 334/203/1 343/194/1 335/202/1
f 333/204/1 342/196/1 334/203/1
f 332/205/1 341/197/1 333/204/1
f 331/206/1 340/198/1 332/205/1
f 330/207/1 339/199/1 331/206/1
f 329/128/1 338/200/1 330/207/1
f 328/208/1 36/38/1 35/36/1
f 327/209/1 336/201/1 328/208/1
f 326/210/1 335/202/1 327/209/1
f 325/211/1 334/203/1 326/210/1
f 324/212/1 333/204/1 325/211/1
f 323/213/1 332/205/1 324/212/1
f 322/214/1 331/206/1 323/213/1
f 321/126/1 330/207/1 322/214/1
f 320/215/1 35/36/1 34/34/1
f 319/216/1 328/208/1 320/215/1
f 318/217/1 327/209/1 319/216/1
f 317/218/1 326/210/1 318/217/1
f 316/219/1 325/211/1 317/218/1
f 315/220/1 324/212/1 316/219/1
f 314/221/1 323/213/1 315/220/1
f 313/124/1 322/214/1 314/221/1
f 312/222/1 34/34/1 33/32/1
f 312/222/1 319/216/1 320/215/1
f 310/223/1 319/216/1 311/224/1
f 309/225/1 318/217/1 310/223/1
f 308/226/1 317/218/1 309/225/1
f 307/227/1 316/219/1 308/226/1
f 306/228/1 315/220/1 307/227/1
f 305/122/1 314/221/1 306/228/1
f 32/30/1 312/222/1 33/32/1
f 304/229/1 311/224/1 312/222/1
f 302/230/1 311/224/1 303/231/1
f 302/230/1 309/225/1 310/223/1
f 300/232/1 309/225/1 301/233/1
f 299/234/1 308/226/1 300/232/1
f 298/235/1 307/227/1 299/234/1
f 297/120/1 306/228/1 298/235/1
f 31/28/1 304/229/1 32/30/1
f 296/236/1 303/231/1 304/229/1
f 294/237/1 303/231/1 295/238/1
f 294/237/1 301/233/1 302/230/1
f 292/239/1 301/233/1 293/240/1
f 292/239/1 299/234/1 300/232/1
f 290/241/1 299/234/1 291/242/1
f 289/118/1 298/235/1 290/241/1
f 288/243/1 31/28/1 30/26/1
f 288/243/1 295/238/1 296/236/1
f 286/244/1 295/238/1 287/245/1
f 285/246/1 294/237/1 286/244/1
f 284/247/1 293/240/1 285/246/1
f 283/248/1 292/239/1 284/247/1
f 282/249/1 291/242/1 283/248/1
f 281/116/1 290/241/1 282/249/1
f 280/250/1 30/26/1 29/24/1
f 279/251/1 288/243/1 280/250/1
f 279/251/1 286/244/1 287/245/1
f 277/252/1 286/244/1 278/253/1
f 276/254/1 285/246/1 277/252/1
f 275/255/1 284/247/1 276/254/1
f 274/256/1 283/248/1 275/255/1
f 273/114/1 282/249/1 274/256/1
f 272/257/1 29/24/1 28/22/1
f 271/258/1 280/250/1 272/257/1
f 270/259/1 279/251/1 271/258/1
f 269/260/1 278/253/1 270/259/1
f 268/261/1 277/252/1 269/260/1
f 267/262/1 276/254/1 268/261/1
f 266/263/1 275/255/1 267/262/1
f 265/112/1 274/256/1 266/263/1
f 264/264/1 28/22/1 27/20/1
f 263/265/1 272/257/1 264/264/1
f 262/266/1 271/258/1 263/265/1
f 261/267/1 270/259/1 262/266/1
f 260/268/1 269/260/1 261/267/1
f 259/269/1 268/261/1 260/268/1
f 258/270/1 267/262/1 259/269/1
f 257/109/1 266/263/1 258/270/1
f 112/271/1 27/20/1 1/18/1
f 111/272/1 264/264/1 112/271/1
f 110/273/1 263/265/1 111/272/1
f 109/274/1 262/266/1 110/273/1
f 108/275/1 261/267/1 109/274/1
f 107/276/1 260/268/1 108/275/1
f 106/277/1 259/269/1 107/276/1
f 105/110/1 258/270/1 106/277/1
f 248/278/9 26/11/9 25/279/9
f 247/280/9 256/10/9 248/278/9
f 246/281/9 255/282/9 247/280/9
f 245/283/9 254/284/9 246/281/9
f 244/285/9 253/286/9 245/283/9
f 243/287/9 252/288/9 244/285/9
f 242/289/9 251/290/9 243/287/9
f 241/70/9 250/291/9 242/289/9
f 240/292/9 25/279/9 24/293/9
f 239/294/9 248/278/9 240/292/9
f 238/295/9 247/280/9 239/294/9
f 237/296/9 246/281/9 238/295/9
f 236/297/9 245/283/9 237/296/9
f 235/298/9 244/285/9 236/297/9
f 234/299/9 243/287/9 235/298/9
f 233/69/9 242/289/9 234/299/9
f 232/300/9 24/293/9 23/301/9
f 232/300/9 239/294/9 240/292/9
f 231/302/9 238/295/9 239/294/9
f 229/303/9 238/295/9 230/304/9
f 228/305/9 237/296/9 229/303/9
f 227/306/9 236/297/9 228/305/9
f 226/307/9 235/298/9 227/306/9
f 225/68/9 234/299/9 226/307/9
f 224/308/9 23/301/9 22/309/9
f 224/308/9 231/302/9 232/300/9
f 223/310/9 230/304/9 231/302/9
f 221/311/9 230/304/9 222/312/9
f 220/313/9 229/303/9 221/311/9
f 220/313/9 227/306/9 228/305/9
f 218/314/9 227/306/9 219/315/9
f 217/67/9 226/307/9 218/314/9
f 216/316/9 22/309/9 21/317/9
f 215/318/9 224/308/9 216/316/9
f 214/319/9 223/310/9 215/318/9
f 213/320/9 222/312/9 214/319/9
f 212/321/9 221/311/9 213/320/9
f 211/322/9 220/313/9 212/321/9
f 210/323/9 219/315/9 211/322/9
f 209/66/9 218/314/9 210/323/9
f 20/324/9 216/316/9 21/317/9
f 208/325/9 215/318/9 216/316/9
f 206/326/9 215/318/9 207/327/9
f 206/326/9 213/320/9 214/319/9
f 204/328/9 213/320/9 205/329/9
f 203/330/9 212/321/9 204/328/9
f 202/331/9 211/322/9 203/330/9
f 201/65/9 210/323/9 202/331/9
f 19/332/9 208/325/9 20/324/9
f 199/333/9 208/325/9 200/334/9
f 198/335/9 207/327/9 199/333/9
f 197/336/9 206/326/9 198/335/9
f 196/337/9 205/329/9 197/336/9
f 195/338/9 204/328/9 196/337/9
f 194/339/9 203/330/9 195/338/9
f 193/64/9 202/331/9 194/339/9
f 192/340/9 19/332/9 18/341/9
f 191/342/9 200/334/9 192/340/9
f 190/343/9 199/333/9 191/342/9
f 189/344/9 198/335/9 190/343/9
f 188/345/9 197/336/9 189/344/9
f 187/346/9 196/337/9 188/345/9
f 186/347/9 195/338/9 187/346/9
f 185/63/9 194/339/9 186/347/9
f 184/348/9 18/341/9 17/349/9
f 183/350/9 192/340/9 184/348/9
f 182/351/9 191/342/9 183/350/9
f 181/352/9 190/343/9 182/351/9
f 180/353/9 189/344/9 181/352/9
f 179/354/9 188/345/9 180/353/9
f 178/355/9 187/346/9 179/354/9
f 177/62/9 186/347/9 178/355/9
f 176/356/9 17/349/9 16/357/9
f 175/358/9 184/348/9 176/356/9
f 174/359/9 183/350/9 175/358/9
f 173/360/9 182/351/9 174/359/9
f 172/361/9 181/352/9 173/360/9
f 171/362/9 180/353/9 172/361/9
f 170/363/9 179/354/9 171/362/9
f 169/61/9 178/355/9 170/363/9
f 168/364/9 16/357/9 15/365/9
f 168/364/9 175/358/9 176/356/9
f 166/366/9 175/358/9 167/367/9
f 165/368/9 174/359/9 166/366/9
f 164/369/9 173/360/9 165/368/9
f 163/370/9 172/361/9 164/369/9
f 162/371/9 171/362/9 163/370/9
f 161/60/9 170/363/9 162/371/9
f 14/372/9 168/364/9 15/365/9
f 160/373/9 167/367/9 168/364/9
f 158/374/9 167/367/9 159/375/9
f 158/374/9 165/368/9 166/366/9
f 156/376/9 165/368/9 157/377/9
f 155/378/9 164/369/9 156/376/9
f 154/379/9 163/370/9 155/378/9
f 153/59/9 162/371/9 154/379/9
f 13/380/9 160/373/9 14/372/9
f 152/381/9 159/375/9 160/373/9
f 150/382/9 159/375/9 151/383/9
f 150/382/9 157/377/9 158/374/9
f 148/384/9 157/377/9 149/385/9
f 148/384/9 155/378/9 156/376/9
f 146/386/9 155/378/9 147/387/9
f 145/58/9 154/379/9 146/386/9
f 144/388/9 13/380/9 12/389/9
f 144/388/9 151/383/9 152/381/9
f 142/390/9 151/383/9 143/391/9
f 141/392/9 150/382/9 142/390/9
f 140/393/9 149/385/9 141/392/9
f 139/394/9 148/384/9 140/393/9
f 138/395/9 147/387/9 139/394/9
f 137/57/9 146/386/9 138/395/9
f 136/396/9 12/389/9 11/397/9
f 135/398/9 144/388/9 136/396/9
f 135/398/9 142/390/9 143/391/9
f 133/399/9 142/390/9 134/400/9
f 132/401/9 141/392/9 133/399/9
f 131/402/9 140/393/9 132/401/9
f 130/403/9 139/394/9 131/402/9
f 129/56/9 138/395/9 130/403/9
f 128/404/9 11/397/9 10/405/9
f 127/406/9 136/396/9 128/404/9
f 126/407/9 135/398/9 127/406/9
f 125/408/9 134/400/9 126/407/9
f 124/409/9 133/399/9 125/408/9
f 123/410/9 132/401/9 124/409/9
f 122/411/9 131/402/9 123/410/9
f 121/54/9 130/403/9 122/411/9
f 120/412/9 10/405/9 9/413/9
f 119/414/9 128/404/9 120/412/9
f 118/415/9 127/406/9 119/414/9
f 117/416/9 126/407/9 118/415/9
f 116/417/9 125/408/9 117/416/9
f 115/418/9 124/409/9 116/417/9
f 114/419/9 123/410/9 115/418/9
f 113/55/9 122/411/9 114/419/9
f 8/74/11 401/73/11 402/74/11
f 87/420/9 120/412/9 88/421/9
f 86/422/9 119/414/9 87/420/9
f 85/423/9 118/415/9 86/422/9
f 84/424/9 117/416/9 85/423/9
f 83/425/9 116/417/9 84/424/9
f 82/426/9 115/418/9 83/425/9
f 81/427/9 114/419/9 82/426/9
f 5/428/6 88/429/6 6/8/6
f 105/430/6 87/431/6 88/429/6
f 106/432/6 86/433/6 87/431/6
f 107/434/6 85/435/6 86/433/6
f 108/436/6 84/437/6 85/435/6
f 109/438/6 83/439/6 84/437/6
f 110/440/6 82/441/6 83/439/6
f 111/442/6 81/17/6 82/441/6
f 4/14/12 410/12/12 63/12/12
f 256/10/13 98/443/13 97/444/13
f 255/282/13 99/445/13 98/443/13
f 254/284/13 100/446/13 99/445/13
f 253/286/13 101/447/13 100/446/13
f 252/288/13 102/448/13 101/447/13
f 251/290/13 103/449/13 102/448/13
f 250/291/13 104/450/13 103/449/13
f 4/14/2 89/451/2 104/53/2
f 104/53/2 90/452/2 103/453/2
f 103/453/2 91/454/2 102/455/2
f 102/455/2 92/456/2 101/457/2
f 101/457/2 93/458/2 100/459/2
f 100/459/2 94/460/2 99/461/2
f 99/461/2 95/462/2 98/463/2
f 98/463/2 96/464/2 97/4/2
f 400/147/1 3/13/1 44/145/1
f 399/149/1 89/465/1 400/147/1
f 398/151/1 90/466/1 399/149/1
f 397/153/1 91/467/1 398/151/1
f 396/155/1 92/468/1 397/153/1
f 395/157/1 93/469/1 396/155/1
f 394/158/1 94/470/1 395/157/1
f 393/3/1 95/471/1 394/158/1
f 416/71/13 406/14/13 405/450/13
f 408/16/9 415/55/9 413/427/9
f 403/421/9 409/413/9 404/472/9
f 401/11/13 414/444/13 402/473/13
f 2/16/4 413/17/4 81/17/4
f 81/427/3 415/55/3 113/55/3
f 88/429/4 404/8/4 6/8/4
f 88/421/7 411/412/7 403/421/7
f 8/6/8 414/4/8 97/4/8
f 104/450/11 416/71/11 405/450/11
f 97/444/12 412/10/12 256/10/12
f 113/55/8 407/19/8 80/19/8
f 2/16/7 407/19/7 408/16/7
f 6/8/3 409/9/3 9/9/3
f 63/12/4 416/71/4 249/71/4
f 9/413/8 411/412/8 120/412/8
f 45/1/1 7/474/1 96/2/1
f 97/4/2 96/464/2 7/5/2
f 62/7/3 5/428/3 6/8/3
f 256/10/4 412/10/4 401/11/4
f 63/12/7 44/145/7 3/13/7
f 112/15/6 1/18/6 2/16/6
f 1/18/7 27/20/7 80/19/7
f 27/20/7 28/22/7 79/21/7
f 28/22/7 29/24/7 78/23/7
f 29/24/7 30/26/7 77/25/7
f 30/26/7 31/28/7 76/27/7
f 31/28/7 32/30/7 75/29/7
f 32/30/7 33/32/7 74/31/7
f 33/32/7 34/34/7 73/33/7
f 34/34/7 35/36/7 72/35/7
f 35/36/7 36/38/7 71/37/7
f 36/38/7 37/40/7 70/39/7
f 37/40/7 38/42/7 69/41/7
f 38/42/7 39/44/7 68/43/7
f 39/44/7 40/46/7 67/45/7
f 40/46/7 41/48/7 66/47/7
f 41/48/7 42/50/7 65/49/7
f 42/50/7 43/52/7 64/51/7
f 43/52/7 44/145/7 63/12/7
f 104/53/8 405/53/8 406/14/8
f 80/19/9 79/21/9 121/54/9
f 79/21/9 78/23/9 129/56/9
f 78/23/9 77/25/9 137/57/9
f 77/25/9 76/27/9 145/58/9
f 76/27/9 75/29/9 153/59/9
f 75/29/9 74/31/9 161/60/9
f 74/31/9 73/33/9 169/61/9
f 73/33/9 72/35/9 177/62/9
f 72/35/9 71/37/9 185/63/9
f 71/37/9 70/39/9 193/64/9
f 70/39/9 69/41/9 201/65/9
f 69/41/9 68/43/9 209/66/9
f 68/43/9 67/45/9 217/67/9
f 67/45/9 66/47/9 225/68/9
f 66/47/9 65/49/9 233/69/9
f 65/49/9 64/51/9 241/70/9
f 64/51/9 63/12/9 249/71/9
f 7/72/3 45/75/3 26/73/3
f 45/75/3 46/77/3 25/76/3
f 46/77/3 47/79/3 24/78/3
f 47/79/3 48/81/3 23/80/3
f 48/81/3 49/83/3 22/82/3
f 49/83/3 50/85/3 21/84/3
f 50/85/3 51/87/3 20/86/3
f 51/87/3 52/89/3 19/88/3
f 52/89/3 53/91/3 18/90/3
f 53/91/3 54/93/3 17/92/3
f 54/93/3 55/95/3 16/94/3
f 55/95/3 56/97/3 15/96/3
f 56/97/3 57/99/3 14/98/3
f 57/99/3 58/101/3 13/100/3
f 58/101/3 59/103/3 12/102/3
f 59/103/3 60/105/3 11/104/3
f 60/105/3 61/107/3 10/106/3
f 61/107/3 62/7/3 9/9/3
f 5/108/1 62/111/1 257/109/1
f 62/111/1 61/113/1 265/112/1
f 61/113/1 60/115/1 273/114/1
f 60/115/1 59/117/1 281/116/1
f 59/117/1 58/119/1 289/118/1
f 58/119/1 57/121/1 297/120/1
f 57/121/1 56/123/1 305/122/1
f 56/123/1 55/125/1 313/124/1
f 55/125/1 54/127/1 321/126/1
f 54/127/1 53/129/1 329/128/1
f 53/129/1 52/131/1 337/130/1
f 52/131/1 51/133/1 345/132/1
f 51/133/1 50/135/1 353/134/1
f 50/135/1 49/137/1 361/136/1
f 49/137/1 48/139/1 369/138/1
f 48/139/1 47/141/1 377/140/1
f 47/141/1 46/143/1 385/142/1
f 46/143/1 45/1/1 393/3/1
f 392/144/1 400/147/1 44/145/1
f 391/146/1 399/149/1 400/147/1
f 390/148/1 398/151/1 399/149/1
f 389/150/1 397/153/1 398/151/1
f 388/152/1 396/155/1 397/153/1
f 387/154/1 395/157/1 396/155/1
f 386/156/1 394/158/1 395/157/1
f 385/142/1 393/3/1 394/158/1
f 384/159/1 392/144/1 43/52/1
f 383/160/1 391/146/1 392/144/1
f 382/161/1 390/148/1 391/146/1
f 381/162/1 389/150/1 390/148/1
f 380/163/1 388/152/1 389/150/1
f 379/164/1 387/154/1 388/152/1
f 378/165/1 386/156/1 387/154/1
f 377/140/1 385/142/1 386/156/1
f 376/166/1 384/159/1 42/50/1
f 376/166/1 375/167/1 383/160/1
f 375/167/1 374/169/1 382/161/1
f 373/168/1 381/162/1 382/161/1
f 372/170/1 380/163/1 381/162/1
f 371/171/1 379/164/1 380/163/1
f 370/172/1 378/165/1 379/164/1
f 369/138/1 377/140/1 378/165/1
f 368/173/1 376/166/1 41/48/1
f 368/173/1 367/174/1 375/167/1
f 367/174/1 366/176/1 374/169/1
f 365/175/1 373/168/1 374/169/1
f 364/177/1 372/170/1 373/168/1
f 364/177/1 363/179/1 371/171/1
f 362/178/1 370/172/1 371/171/1
f 361/136/1 369/138/1 370/172/1
f 360/180/1 368/173/1 40/46/1
f 359/181/1 367/174/1 368/173/1
f 358/182/1 366/176/1 367/174/1
f 357/183/1 365/175/1 366/176/1
f 356/184/1 364/177/1 365/175/1
f 355/185/1 363/179/1 364/177/1
f 354/186/1 362/178/1 363/179/1
f 353/134/1 361/136/1 362/178/1
f 38/42/1 352/187/1 360/180/1
f 352/187/1 351/189/1 359/181/1
f 350/188/1 358/182/1 359/181/1
f 350/188/1 349/191/1 357/183/1
f 348/190/1 356/184/1 357/183/1
f 347/192/1 355/185/1 356/184/1
f 346/193/1 354/186/1 355/185/1
f 345/132/1 353/134/1 354/186/1
f 37/40/1 344/195/1 352/187/1
f 343/194/1 351/189/1 352/187/1
f 342/196/1 350/188/1 351/189/1
f 341/197/1 349/191/1 350/188/1
f 340/198/1 348/190/1 349/191/1
f 339/199/1 347/192/1 348/190/1
f 338/200/1 346/193/1 347/192/1
f 337/130/1 345/132/1 346/193/1
f 336/201/1 344/195/1 37/40/1
f 335/202/1 343/194/1 344/195/1
f 334/203/1 342/196/1 343/194/1
f 333/204/1 341/197/1 342/196/1
f 332/205/1 340/198/1 341/197/1
f 331/206/1 339/199/1 340/198/1
f 330/207/1 338/200/1 339/199/1
f 329/128/1 337/130/1 338/200/1
f 328/208/1 336/201/1 36/38/1
f 327/209/1 335/202/1 336/201/1
f 326/210/1 334/203/1 335/202/1
f 325/211/1 333/204/1 334/203/1
f 324/212/1 332/205/1 333/204/1
f 323/213/1 331/206/1 332/205/1
f 322/214/1 330/207/1 331/206/1
f 321/126/1 329/128/1 330/207/1
f 320/215/1 328/208/1 35/36/1
f 319/216/1 327/209/1 328/208/1
f 318/217/1 326/210/1 327/209/1
f 317/218/1 325/211/1 326/210/1
f 316/219/1 324/212/1 325/211/1
f 315/220/1 323/213/1 324/212/1
f 314/221/1 322/214/1 323/213/1
f 313/124/1 321/126/1 322/214/1
f 312/222/1 320/215/1 34/34/1
f 312/222/1 311/224/1 319/216/1
f 310/223/1 318/217/1 319/216/1
f 309/225/1 317/218/1 318/217/1
f 308/226/1 316/219/1 317/218/1
f 307/227/1 315/220/1 316/219/1
f 306/228/1 314/221/1 315/220/1
f 305/122/1 313/124/1 314/221/1
f 32/30/1 304/229/1 312/222/1
f 304/229/1 303/231/1 311/224/1
f 302/230/1 310/223/1 311/224/1
f 302/230/1 301/233/1 309/225/1
f 300/232/1 308/226/1 309/225/1
f 299/234/1 307/227/1 308/226/1
f 298/235/1 306/228/1 307/227/1
f 297/120/1 305/122/1 306/228/1
f 31/28/1 296/236/1 304/229/1
f 296/236/1 295/238/1 303/231/1
f 294/237/1 302/230/1 303/231/1
f 294/237/1 293/240/1 301/233/1
f 292/239/1 300/232/1 301/233/1
f 292/239/1 291/242/1 299/234/1
f 290/241/1 298/235/1 299/234/1
f 289/118/1 297/120/1 298/235/1
f 288/243/1 296/236/1 31/28/1
f 288/243/1 287/245/1 295/238/1
f 286/244/1 294/237/1 295/238/1
f 285/246/1 293/240/1 294/237/1
f 284/247/1 292/239/1 293/240/1
f 283/248/1 291/242/1 292/239/1
f 282/249/1 290/241/1 291/242/1
f 281/116/1 289/118/1 290/241/1
f 280/250/1 288/243/1 30/26/1
f 279/251/1 287/245/1 288/243/1
f 279/251/1 278/253/1 286/244/1
f 277/252/1 285/246/1 286/244/1
f 276/254/1 284/247/1 285/246/1
f 275/255/1 283/248/1 284/247/1
f 274/256/1 282/249/1 283/248/1
f 273/114/1 281/116/1 282/249/1
f 272/257/1 280/250/1 29/24/1
f 271/258/1 279/251/1 280/250/1
f 270/259/1 278/253/1 279/251/1
f 269/260/1 277/252/1 278/253/1
f 268/261/1 276/254/1 277/252/1
f 267/262/1 275/255/1 276/254/1
f 266/263/1 274/256/1 275/255/1
f 265/112/1 273/114/1 274/256/1
f 264/264/1 272/257/1 28/22/1
f 263/265/1 271/258/1 272/257/1
f 262/266/1 270/259/1 271/258/1
f 261/267/1 269/260/1 270/259/1
f 260/268/1 268/261/1 269/260/1
f 259/269/1 267/262/1 268/261/1
f 258/270/1 266/263/1 267/262/1
f 257/109/1 265/112/1 266/263/1
f 112/271/1 264/264/1 27/20/1
f 111/272/1 263/265/1 264/264/1
f 110/273/1 262/266/1 263/265/1
f 109/274/1 261/267/1 262/266/1
f 108/275/1 260/268/1 261/267/1
f 107/276/1 259/269/1 260/268/1
f 106/277/1 258/270/1 259/269/1
f 105/110/1 257/109/1 258/270/1
f 248/278/9 256/10/9 26/11/9
f 247/280/9 255/282/9 256/10/9
f 246/281/9 254/284/9 255/282/9
f 245/283/9 253/286/9 254/284/9
f 244/285/9 252/288/9 253/286/9
f 243/287/9 251/290/9 252/288/9
f 242/289/9 250/291/9 251/290/9
f 241/70/9 249/71/9 250/291/9
f 240/292/9 248/278/9 25/279/9
f 239/294/9 247/280/9 248/278/9
f 238/295/9 246/281/9 247/280/9
f 237/296/9 245/283/9 246/281/9
f 236/297/9 244/285/9 245/283/9
f 235/298/9 243/287/9 244/285/9
f 234/299/9 242/289/9 243/287/9
f 233/69/9 241/70/9 242/289/9
f 232/300/9 240/292/9 24/293/9
f 232/300/9 231/302/9 239/294/9
f 231/302/9 230/304/9 238/295/9
f 229/303/9 237/296/9 238/295/9
f 228/305/9 236/297/9 237/296/9
f 227/306/9 235/298/9 236/297/9
f 226/307/9 234/299/9 235/298/9
f 225/68/9 233/69/9 234/299/9
f 224/308/9 232/300/9 23/301/9
f 224/308/9 223/310/9 231/302/9
f 223/310/9 222/312/9 230/304/9
f 221/311/9 229/303/9 230/304/9
f 220/313/9 228/305/9 229/303/9
f 220/313/9 219/315/9 227/306/9
f 218/314/9 226/307/9 227/306/9
f 217/67/9 225/68/9 226/307/9
f 216/316/9 224/308/9 22/309/9
f 215/318/9 223/310/9 224/308/9
f 214/319/9 222/312/9 223/310/9
f 213/320/9 221/311/9 222/312/9
f 212/321/9 220/313/9 221/311/9
f 211/322/9 219/315/9 220/313/9
f 210/323/9 218/314/9 219/315/9
f 209/66/9 217/67/9 218/314/9
f 20/324/9 208/325/9 216/316/9
f 208/325/9 207/327/9 215/318/9
f 206/326/9 214/319/9 215/318/9
f 206/326/9 205/329/9 213/320/9
f 204/328/9 212/321/9 213/320/9
f 203/330/9 211/322/9 212/321/9
f 202/331/9 210/323/9 211/322/9
f 201/65/9 209/66/9 210/323/9
f 19/332/9 200/334/9 208/325/9
f 199/333/9 207/327/9 208/325/9
f 198/335/9 206/326/9 207/327/9
f 197/336/9 205/329/9 206/326/9
f 196/337/9 204/328/9 205/329/9
f 195/338/9 203/330/9 204/328/9
f 194/339/9 202/331/9 203/330/9
f 193/64/9 201/65/9 202/331/9
f 192/340/9 200/334/9 19/332/9
f 191/342/9 199/333/9 200/334/9
f 190/343/9 198/335/9 199/333/9
f 189/344/9 197/336/9 198/335/9
f 188/345/9 196/337/9 197/336/9
f 187/346/9 195/338/9 196/337/9
f 186/347/9 194/339/9 195/338/9
f 185/63/9 193/64/9 194/339/9
f 184/348/9 192/340/9 18/341/9
f 183/350/9 191/342/9 192/340/9
f 182/351/9 190/343/9 191/342/9
f 181/352/9 189/344/9 190/343/9
f 180/353/9 188/345/9 189/344/9
f 179/354/9 187/346/9 188/345/9
f 178/355/9 186/347/9 187/346/9
f 177/62/9 185/63/9 186/347/9
f 176/356/9 184/348/9 17/349/9
f 175/358/9 183/350/9 184/348/9
f 174/359/9 182/351/9 183/350/9
f 173/360/9 181/352/9 182/351/9
f 172/361/9 180/353/9 181/352/9
f 171/362/9 179/354/9 180/353/9
f 170/363/9 178/355/9 179/354/9
f 169/61/9 177/62/9 178/355/9
f 168/364/9 176/356/9 16/357/9
f 168/364/9 167/367/9 175/358/9
f 166/366/9 174/359/9 175/358/9
f 165/368/9 173/360/9 174/359/9
f 164/369/9 172/361/9 173/360/9
f 163/370/9 171/362/9 172/361/9
f 162/371/9 170/363/9 171/362/9
f 161/60/9 169/61/9 170/363/9
f 14/372/9 160/373/9 168/364/9
f 160/373/9 159/375/9 167/367/9
f 158/374/9 166/366/9 167/367/9
f 158/374/9 157/377/9 165/368/9
f 156/376/9 164/369/9 165/368/9
f 155/378/9 163/370/9 164/369/9
f 154/379/9 162/371/9 163/370/9
f 153/59/9 161/60/9 162/371/9
f 13/380/9 152/381/9 160/373/9
f 152/381/9 151/383/9 159/375/9
f 150/382/9 158/374/9 159/375/9
f 150/382/9 149/385/9 157/377/9
f 148/384/9 156/376/9 157/377/9
f 148/384/9 147/387/9 155/378/9
f 146/386/9 154/379/9 155/378/9
f 145/58/9 153/59/9 154/379/9
f 144/388/9 152/381/9 13/380/9
f 144/388/9 143/391/9 151/383/9
f 142/390/9 150/382/9 151/383/9
f 141/392/9 149/385/9 150/382/9
f 140/393/9 148/384/9 149/385/9
f 139/394/9 147/387/9 148/384/9
f 138/395/9 146/386/9 147/387/9
f 137/57/9 145/58/9 146/386/9
f 136/396/9 144/388/9 12/389/9
f 135/398/9 143/391/9 144/388/9
f 135/398/9 134/400/9 142/390/9
f 133/399/9 141/392/9 142/390/9
f 132/401/9 140/393/9 141/392/9
f 131/402/9 139/394/9 140/393/9
f 130/403/9 138/395/9 139/394/9
f 129/56/9 137/57/9 138/395/9
f 128/404/9 136/396/9 11/397/9
f 127/406/9 135/398/9 136/396/9
f 126/407/9 134/400/9 135/398/9
f 125/408/9 133/399/9 134/400/9
f 124/409/9 132/401/9 133/399/9
f 123/410/9 131/402/9 132/401/9
f 122/411/9 130/403/9 131/402/9
f 121/54/9 129/56/9 130/403/9
f 120/412/9 128/404/9 10/405/9
f 119/414/9 127/406/9 128/404/9
f 118/415/9 126/407/9 127/406/9
f 117/416/9 125/408/9 126/407/9
f 116/417/9 124/409/9 125/408/9
f 115/418/9 123/410/9 124/409/9
f 114/419/9 122/411/9 123/410/9
f 113/55/9 121/54/9 122/411/9
f 8/74/11 26/73/11 401/73/11
f 87/420/9 119/414/9 120/412/9
f 86/422/9 118/415/9 119/414/9
f 85/423/9 117/416/9 118/415/9
f 84/424/9 116/417/9 117/416/9
f 83/425/9 115/418/9 116/417/9
f 82/426/9 114/419/9 115/418/9
f 81/427/9 113/55/9 114/419/9
f 5/428/6 105/430/6 88/429/6
f 105/430/6 106/432/6 87/431/6
f 106/432/6 107/434/6 86/433/6
f 107/434/6 108/436/6 85/435/6
f 108/436/6 109/438/6 84/437/6
f 109/438/6 110/440/6 83/439/6
f 110/440/6 111/442/6 82/441/6
f 111/442/6 112/15/6 81/17/6
f 4/14/12 406/14/12 410/12/12
f 256/10/13 255/282/13 98/443/13
f 255/282/13 254/284/13 99/445/13
f 254/284/13 253/286/13 100/446/13
f 253/286/13 252/288/13 101/447/13
f 252/288/13 251/290/13 102/448/13
f 251/290/13 250/291/13 103/449/13
f 250/291/13 249/71/13 104/450/13
f 4/14/2 3/13/2 89/451/2
f 104/53/2 89/451/2 90/452/2
f 103/453/2 90/452/2 91/454/2
f 102/455/2 91/454/2 92/456/2
f 101/457/2 92/456/2 93/458/2
f 100/459/2 93/458/2 94/460/2
f 99/461/2 94/460/2 95/462/2
f 98/463/2 95/462/2 96/464/2
f 400/147/1 89/465/1 3/13/1
f 399/149/1 90/466/1 89/465/1
f 398/151/1 91/467/1 90/466/1
f 397/153/1 92/468/1 91/467/1
f 396/155/1 93/469/1 92/468/1
f 395/157/1 94/470/1 93/469/1
f 394/158/1 95/471/1 94/470/1
f 393/3/1 96/2/1 95/471/1
f 416/71/13 410/12/13 406/14/13
f 408/16/9 407/19/9 415/55/9
f 403/421/9 411/412/9 409/413/9
f 401/11/13 412/10/13 414/444/13
f 2/16/4 408/16/4 413/17/4
f 81/427/3 413/427/3 415/55/3
f 88/429/4 403/429/4 404/8/4
f 88/421/7 120/412/7 411/412/7
f 8/6/8 402/6/8 414/4/8
f 104/450/11 249/71/11 416/71/11
f 97/444/12 414/444/12 412/10/12
f 113/55/8 415/55/8 407/19/8
f 2/16/7 80/19/7 407/19/7
f 6/8/3 404/8/3 409/9/3
f 63/12/4 410/12/4 416/71/4
f 9/413/8 409/413/8 411/412/8
