# Blender 4.5.3 LTS
# www.blender.org
o Object_2
v -5.70885 0.46640075 5.56965075
v -5.70885 0.46639925 -5.70065075
v -6.02510025 0.46639925 -6.01285075
v -6.02510025 0.46640075 5.88185025
v 5.708725 0.46640075 5.56965075
v -5.70885 0.46640075 5.56965075
v -6.02510025 0.46640075 5.88185025
v 6.025 0.46640075 5.88185025
v -5.70885 0.46639925 -5.70065075
v 5.708725 0.46639925 -5.70065075
v 6.025 0.46639925 -6.01285075
v -6.02510025 0.46639925 -6.01285075
v 5.708725 0.46639925 -5.70065075
v 5.708725 0.46640075 5.56965075
v 6.025 0.46640075 5.88185025
v 6.025 0.46639925 -6.01285075
v 7.50199975 -0.576874 8.16477575
v 7.455575 -0.576874 8.23327625
v -7.45559975 -0.576874 8.23327625
v -7.50202525 -0.576874 8.16477575
v -5.99197475 -0.57687575 -5.9221755
v 5.99197475 -0.57687575 -5.9221755
v 6.13399975 -0.57687575 -5.8008255
v -6.134025 -0.57687575 -5.8008255
v -5.99197475 -0.576876 -7.11010075
v 5.99197475 -0.576876 -7.11010075
v 7.342175 -0.576874 8.26820075
v -7.342175 -0.576874 8.26820075
v -7.50199975 -0.57687575 -5.8008255
v 7.50199975 -0.57687575 -5.8008255
v -6.095375 14.28465075 -8.157053
v -6.095375 14.31112575 -7.507978
v -5.77245 14.306651 -7.50752775
v -5.77245 14.28017625 -8.157053
v -6.095375 3.2072745 -6.54895175
v -6.105925 2.76449925 -6.5354515
v -5.79217475 3.2068495 -6.5490765
v 6.10597525 2.76449925 -6.5354515
v 5.79225025 3.2068495 -6.5490765
v 6.09542525 14.28465075 -8.157053
v 5.7725 14.28017625 -8.157053
v 5.7725 14.306651 -7.50752775
v 6.09542525 14.31112575 -7.507978
v 6.09542525 3.2072745 -6.54895175
v -6.134575 1.56052425 -6.081201
v -6.134575 1.560524 -7.59470075
v 6.134625 1.560524 -7.59470075
v 6.134625 1.56052425 -6.081201
v -7.50199975 -0.57687575 -5.8008255
v -7.58715 -0.49175075 -5.8008255
v -6.134025 -0.57687575 -5.8008255
v -7.58715 0.27102425 -5.8008255
v -7.5193 0.44372425 -5.8008255
v -6.13399975 0.55134925 -5.8008255
v -5.99197475 -0.57687575 -5.9221755
v -5.99197475 0.55134925 -5.9221755
v -7.58715 0.05859925 -5.8008255
v -7.342175 0.55134925 -5.8008255
v 5.76685 0.55135075 5.6616255
v 5.76685 0.26380075 5.6616255
v -5.76685 0.26380075 5.6616255
v -5.76685 0.55135075 5.6616255
v 7.50199975 -0.57687575 -5.8008255
v 6.13399975 -0.57687575 -5.8008255
v 7.58715 -0.49175075 -5.8008255
v 7.58712475 0.27102425 -5.8008255
v 6.13399975 0.55134925 -5.8008255
v 7.5193 0.44372425 -5.8008255
v 5.99197475 -0.57687575 -5.9221755
v 5.99197475 0.55134925 -5.9221755
v 7.58715 0.05859925 -5.8008255
v 7.342175 0.55134925 -5.8008255
v -5.75969975 0.55134925 -5.8008255
v -5.76685 0.43757425 -5.8008255
v -5.76685 0.26379925 -5.8008255
v 5.76685 0.26379925 -5.8008255
v 5.76685 0.43757425 -5.8008255
v 5.75969975 0.55134925 -5.8008255
v -7.14725025 -16.6005515 6.15142825
v -6.0677 -16.6005515 6.15142825
v -6.0677 -16.60054975 7.32272825
v -7.14725025 -16.60054975 7.32272825
v -6.57872475 -16.6005515 -6.78677375
v -6.57872475 -16.6005535 -8.030774
v -6.432325 -11.873602 -7.75392425
v -6.432325 -11.873602 -6.35607425
v -7.53472525 -16.6005515 -6.78677375
v -7.4281 -11.873602 -6.35607425
v -7.4281 -11.873602 -7.75392425
v -7.53472525 -16.6005535 -8.030774
v -6.90215025 16.600525 -7.35455325
v -6.90215025 16.52672575 -8.35332775
v -6.90215025 13.5604505 -8.09370325
v -6.90215025 13.61807625 -7.093728
v -6.134575 1.56052425 -6.081201
v -6.134575 1.56052425 -5.94767575
v -6.14362475 -5.0894265 -5.936275
v -6.14362475 -5.0894265 -7.6586255
v -7.27229975 1.56052425 -5.94767575
v -7.27229975 1.560524 -7.59470075
v -7.28622475 -5.0894265 -7.6586255
v -7.28622475 -5.0894265 -5.936275
v -6.095375 16.5267505 -8.35332775
v -6.095375 16.60054975 -7.35455325
v -6.095375 14.31112575 -7.507978
v -6.095375 14.28465075 -8.157053
v -7.25282475 3.207775 -6.02940125
v -7.25282475 3.2077495 -7.6125015
v -6.095375 13.61807625 -7.093728
v -6.095375 13.591176 -7.41255275
v -6.095375 13.61807625 -7.093728
v -6.095375 3.20774975 -6.02940125
v -6.095375 3.2072745 -6.54892625
v -6.095375 13.591176 -7.41255275
v -6.134575 1.56052425 -5.94767575
v -6.134575 1.56052425 -6.081201
v -6.10550025 2.7827745 -6.1301265
v -6.105925 2.76449925 -6.5354515
v -6.134575 1.560524 -7.59470075
v 6.56812475 -16.6005515 -6.78677375
v 6.42054975 -11.873602 -6.35607425
v 6.42054975 -11.873602 -7.75392425
v 6.56812475 -16.6005535 -8.030774
v 7.524125 -16.6005515 -6.78677375
v 7.524125 -16.6005535 -8.030774
v 7.41629975 -11.873602 -7.75392425
v 7.41629975 -11.873602 -6.35607425
v 6.90220025 16.600525 -7.35455325
v 6.90220025 13.61807625 -7.093728
v 6.90220025 13.5604505 -8.09370325
v 6.90220025 16.52672575 -8.35332775
v 6.134625 1.56052425 -6.081201
v 6.14367475 -5.0894265 -7.6586255
v 6.14367475 -5.0894265 -5.936275
v 6.134625 1.56052425 -5.94767575
v 7.27234975 1.56052425 -5.94767575
v 7.286275 -5.0894265 -5.936275
v 7.286275 -5.0894265 -7.6586255
v 7.27234975 1.560524 -7.59470075
v 6.09542525 16.5267505 -8.35332775
v 6.09542525 14.28465075 -8.157053
v 6.09542525 14.31112575 -7.507978
v 6.09542525 16.60054975 -7.35455325
v 7.25287475 3.2077495 -7.6125015
v 7.25287475 3.207775 -6.02940125
v 6.09542525 13.591176 -7.41255275
v 6.09542525 13.61807625 -7.093728
v 6.09542525 13.61807625 -7.093728
v 6.09542525 13.591176 -7.41255275
v 6.09542525 3.2072745 -6.54892625
v 6.09542525 3.20774975 -6.02940125
v 6.10554975 2.7827745 -6.1301265
v 6.134625 1.56052425 -6.081201
v 6.134625 1.56052425 -5.94767575
v 5.79225025 3.2068495 -6.5490765
v 5.79225025 3.2073495 -7.6125015
v -5.79217475 3.2073495 -7.6125015
v -5.79217475 3.2068495 -6.5490765
v 6.10597525 2.76449925 -6.5354515
v 6.134625 1.560524 -7.59470075
v -5.71710025 14.3059005 -7.561153
v 0.0 14.3059005 -7.561153
v 0.0 14.293851 -8.04025275
v -5.71710025 14.293851 -8.04025275
v 5.634575 14.20757575 -7.38457775
v 5.63460025 14.16297625 -7.60012775
v -5.63460025 14.16297625 -7.60012775
v -5.634575 14.20757575 -7.38457775
v 5.712275 3.2052495 -7.0386515
v 0.0 3.2052495 -7.0386515
v 0.0 3.2052495 -7.5183015
v 5.712275 3.2052495 -7.5183015
v -5.6159 3.2691495 -6.4927015
v -5.616475 3.2548745 -7.0899515
v 5.616475 3.2548745 -7.0899515
v 5.6159 3.2691495 -6.4927015
v 5.71710025 14.3059005 -7.561153
v 5.71710025 14.293851 -8.04025275
v -5.712275 3.2052495 -7.0386515
v -5.712275 3.2052495 -7.5183015
v -6.068975 16.59244925 -7.3448535
v -6.068975 14.373826 -7.15072775
v 6.06955 14.373826 -7.15072775
v 6.06955 16.59244925 -7.3448535
v 6.06955 16.5267505 -8.34482775
v 6.06955 14.31620125 -8.1507025
v -6.068975 14.31620125 -8.1507025
v -6.068975 16.5267505 -8.34482775
v 6.06772525 -16.6005515 6.15142825
v 7.147275 -16.6005515 6.15142825
v 7.147275 -16.60054975 7.32272825
v 6.06772525 -16.60054975 7.32272825
v -5.66085 0.87245075 5.52165025
v 5.660725 0.87245075 5.52165025
v 5.660725 0.87244925 -5.65265025
v -5.66085 0.87244925 -5.65265025
v -5.99197475 0.551349 -6.977251
v -5.99197475 0.455099 -7.078701
v -5.99197475 0.55134925 -5.9221755
v -5.99197475 0.058599 -7.11010075
v -5.99197475 -0.576876 -7.11010075
v -5.99197475 -0.57687575 -5.9221755
v -5.76685 0.26380075 5.6616255
v -5.76685 0.26379925 -5.8008255
v -5.76685 0.43757425 -5.8008255
v -5.76685 0.55135075 5.6616255
v -5.76685 0.52954925 -5.8008255
v -5.99197475 0.271024 -7.11010075
v 5.99197475 0.551349 -6.977251
v 5.99197475 0.55134925 -5.9221755
v 5.99197475 0.455099 -7.078701
v 5.99197475 0.058599 -7.11010075
v 5.99197475 -0.57687575 -5.9221755
v 5.99197475 -0.576876 -7.11010075
v 5.76685 0.43757425 -5.8008255
v 5.76685 0.26379925 -5.8008255
v 5.76685 0.26380075 5.6616255
v 5.76685 0.55135075 5.6616255
v 5.76685 0.52954925 -5.8008255
v 5.99197475 0.271024 -7.11010075
v -5.9287 -9.73107525 6.0493775
v -5.9287 -0.43497425 6.049376
v -5.9287 -0.434974 7.42480075
v -5.9287 -9.73107525 7.42480225
v -7.28625 -9.73107525 7.42480225
v -7.28625 -0.434974 7.42480075
v -7.28625 -0.43497425 6.049376
v -7.28625 -9.73107525 6.0493775
v -6.0677 -16.60054975 7.32272825
v -6.0677 -16.6005515 6.15142825
v -7.14725025 -16.6005515 6.15142825
v -7.14725025 -16.60054975 7.32272825
v -5.92180025 -3.80959975 6.37035125
v -5.92180025 -3.80959975 7.1094265
v 5.916175 -3.80959975 7.1094265
v 5.916175 -3.80959975 6.37035125
v -5.92180025 -4.58522475 7.1094265
v -5.92180025 -4.58522475 6.37035125
v 5.916175 -4.58522475 6.37035125
v 5.916175 -4.58522475 7.1094265
v -7.16314975 -4.1700245 6.0408765
v -6.308875 -4.1700245 6.0408765
v -6.308875 -4.17002625 -5.9337
v -7.16314975 -4.17002625 -5.9337
v -6.308875 -4.9456495 6.0408765
v -7.16314975 -4.9456495 6.0408765
v -7.16314975 -4.9456515 -5.9337
v -6.308875 -4.9456515 -5.9337
v -6.57872475 -16.6005515 -6.78677375
v -6.432325 -11.873602 -6.35607425
v -7.4281 -11.873602 -6.35607425
v -7.53472525 -16.6005515 -6.78677375
v -7.53472525 -16.6005535 -8.030774
v -7.4281 -11.873602 -7.75392425
v -6.432325 -11.873602 -7.75392425
v -6.57872475 -16.6005535 -8.030774
v -6.095375 16.60054975 -7.35455325
v -6.90215025 16.600525 -7.35455325
v -6.90215025 13.61807625 -7.093728
v -6.095375 13.61807625 -7.093728
v -6.90215025 13.5604505 -8.09370325
v -6.90215025 16.52672575 -8.35332775
v -6.095375 14.28465075 -8.157053
v -6.14362475 -5.0894265 -5.936275
v -6.134575 1.56052425 -5.94767575
v -7.27229975 1.56052425 -5.94767575
v -7.28622475 -5.0894265 -5.936275
v -7.27229975 1.560524 -7.59470075
v -6.134575 1.560524 -7.59470075
v -6.14362475 -5.0894265 -7.6586255
v -7.28622475 -5.0894265 -7.6586255
v -6.095375 16.5267505 -8.35332775
v -6.095375 3.20774975 -6.02940125
v -7.25282475 3.207775 -6.02940125
v -7.25282475 3.2077495 -7.6125015
v -5.77245 14.28017625 -8.157053
v -5.77245 13.555976 -8.09370325
v -6.095375 14.31112575 -7.507978
v -6.095375 13.591176 -7.41255275
v -5.77242525 13.5867015 -7.412078
v -5.77245 14.306651 -7.50752775
v -6.095375 3.2072745 -6.54892625
v -5.79217475 3.2068495 -6.5490765
v -5.79217475 3.2073495 -7.6125015
v -6.10550025 2.7827745 -6.1301265
v 6.10554975 2.7827745 -6.1301265
v 6.10597525 2.76449925 -6.5354515
v -6.105925 2.76449925 -6.5354515
v 6.56812475 -16.6005515 -6.78677375
v 7.524125 -16.6005515 -6.78677375
v 7.41629975 -11.873602 -6.35607425
v 6.42054975 -11.873602 -6.35607425
v 7.524125 -16.6005535 -8.030774
v 6.56812475 -16.6005535 -8.030774
v 6.42054975 -11.873602 -7.75392425
v 7.41629975 -11.873602 -7.75392425
v 6.09542525 16.60054975 -7.35455325
v 6.09542525 13.61807625 -7.093728
v 6.90220025 13.61807625 -7.093728
v 6.90220025 16.600525 -7.35455325
v 6.90220025 13.5604505 -8.09370325
v 6.09542525 14.28465075 -8.157053
v 6.90220025 16.52672575 -8.35332775
v 6.14367475 -5.0894265 -5.936275
v 7.286275 -5.0894265 -5.936275
v 7.27234975 1.56052425 -5.94767575
v 6.134625 1.56052425 -5.94767575
v 7.27234975 1.560524 -7.59470075
v 7.286275 -5.0894265 -7.6586255
v 6.14367475 -5.0894265 -7.6586255
v 6.134625 1.560524 -7.59470075
v 6.09542525 16.5267505 -8.35332775
v 7.25287475 3.207775 -6.02940125
v 6.09542525 3.20774975 -6.02940125
v 7.25287475 3.2077495 -7.6125015
v 5.7725 13.555976 -8.09370325
v 5.7725 14.28017625 -8.157053
v 6.09542525 14.31112575 -7.507978
v 5.7725 14.306651 -7.50752775
v 5.7725 13.5867015 -7.412078
v 6.09542525 13.591176 -7.41255275
v 5.79225025 3.2068495 -6.5490765
v 6.09542525 3.2072745 -6.54892625
v 5.79225025 3.2073495 -7.6125015
v 6.134625 1.560524 -7.59470075
v -6.134575 1.560524 -7.59470075
v -5.79217475 3.2073495 -7.6125015
v 5.79225025 3.2073495 -7.6125015
v -6.04659975 13.62520125 -7.34282775
v -6.04712475 14.34810075 -7.401753
v -5.634575 14.20757575 -7.38457775
v -5.63407525 13.2763015 -7.30867775
v -6.09485 3.3158745 -6.5031265
v -5.6159 3.2691495 -6.4927015
v -6.09507525 2.87922425 -6.46755125
v -5.71710025 14.293851 -8.04025275
v -5.71710025 13.2591505 -7.949728
v -5.71710025 13.27120125 -7.47062775
v -5.71710025 14.3059005 -7.561153
v -5.712275 3.2052495 -7.5183015
v -5.712275 3.2052495 -7.0386515
v 5.6159 3.2691495 -6.4927015
v 6.09507525 2.87922425 -6.46755125
v 6.04659975 13.62520125 -7.34282775
v 5.63407525 13.2763015 -7.30867775
v 5.634575 14.20757575 -7.38457775
v 6.04712475 14.34810075 -7.401753
v 6.09485 3.3158745 -6.5031265
v 5.71710025 14.293851 -8.04025275
v 5.71710025 14.3059005 -7.561153
v 5.71710025 13.27120125 -7.47062775
v 5.71710025 13.2591505 -7.949728
v 5.712275 3.2052495 -7.0386515
v 5.712275 3.2052495 -7.5183015
v 6.06955 14.31620125 -8.1507025
v 6.06955 14.373826 -7.15072775
v -6.068975 14.373826 -7.15072775
v -6.068975 14.31620125 -8.1507025
v 6.06955 16.59244925 -7.3448535
v 6.06955 16.5267505 -8.34482775
v -6.068975 16.5267505 -8.34482775
v -6.068975 16.59244925 -7.3448535
v 6.15025 -3.5992765 -6.5348755
v 6.15025 -3.5992765 -7.4222255
v -6.23837525 -3.5992765 -7.4222255
v -6.23837525 -3.5992765 -6.5348755
v 6.15025 -4.4049015 -7.4222255
v 6.15025 -4.4049015 -6.5348755
v -6.23837525 -4.4049015 -6.5348755
v -6.23837525 -4.4049015 -7.4222255
v 5.92872475 -9.73107525 6.0493775
v 5.92872475 -9.73107525 7.42480225
v 5.92872475 -0.434974 7.42480075
v 5.92872475 -0.43497425 6.049376
v 7.286275 -9.73107525 7.42480225
v 7.286275 -9.73107525 6.0493775
v 7.286275 -0.43497425 6.049376
v 7.286275 -0.434974 7.42480075
v 6.06772525 -16.6005515 6.15142825
v 6.06772525 -16.60054975 7.32272825
v 7.147275 -16.60054975 7.32272825
v 7.147275 -16.6005515 6.15142825
v 7.14694975 -4.1700245 6.01390125
v 7.14694975 -4.17002625 -5.9337
v 6.292675 -4.17002625 -5.9337
v 6.292675 -4.1700245 6.01390125
v 6.292675 -4.9456495 6.01390125
v 6.292675 -4.9456515 -5.9337
v 7.14694975 -4.9456515 -5.9337
v 7.14694975 -4.9456495 6.01390125
v -6.786025 -2.20995125 -6.60945025
v -6.786025 -2.20995125 -7.3284005
v 6.786075 -2.20995125 -7.3284005
v 6.786075 -2.20995125 -6.60945025
v -6.786025 -0.675726 -7.328401
v -6.786025 -0.675726 -6.60945075
v 6.786075 -0.675726 -6.60945075
v 6.786075 -0.675726 -7.328401
v -7.08945 -0.67572425 6.02322575
v -6.3705 -0.67572425 6.02322575
v -6.3705 -0.67572575 -5.92610025
v -7.08945 -0.67572575 -5.92610025
v -6.3705 -2.2099495 6.02322625
v -7.08945 -2.2099495 6.02322625
v -7.08945 -2.209951 -5.92609975
v -6.3705 -2.209951 -5.92609975
v -5.92180025 -0.57687425 6.39157575
v -5.92180025 -0.576874 7.110526
v 5.916175 -0.576874 7.110526
v 5.916175 -0.57687425 6.39157575
v -5.92180025 -2.20994925 7.1105265
v -5.92180025 -2.20994925 6.39157625
v 5.916175 -2.20994925 6.39157625
v 5.916175 -2.20994925 7.1105265
v 7.08532475 -0.67572425 5.99625075
v 7.08532475 -0.67572575 -5.92610025
v 6.366375 -0.67572575 -5.92610025
v 6.366375 -0.67572425 5.99625075
v 6.366375 -2.2099495 5.996251
v 6.366375 -2.209951 -5.92609975
v 7.08532475 -2.209951 -5.92609975
v 7.08532475 -2.2099495 5.996251
v -5.70885 0.72562575 5.56965075
v -5.70885 0.46640075 5.56965075
v 5.708725 0.46640075 5.56965075
v 5.708725 0.72562575 5.56965075
v 5.660725 0.87245075 5.52165025
v -5.66085 0.87245075 5.52165025
v 5.708725 0.46639925 -5.70065075
v -5.70885 0.46639925 -5.70065075
v -5.70885 0.72562425 -5.70065075
v 5.708725 0.72562425 -5.70065075
v -5.66085 0.87244925 -5.65265025
v 5.660725 0.87244925 -5.65265025
v -7.342175 0.26805125 8.35332575
v -7.342175 -0.491749 8.35332575
v 7.342175 -0.491749 8.35332575
v 7.342175 0.26805125 8.35332575
v -7.58715 -0.491749 8.20775125
v -7.58715 0.114526 8.20775125
v -7.58715 0.05859925 -5.8008255
v -7.58715 -0.49175075 -5.8008255
v -5.75969975 0.55134925 -5.8008255
v -6.13399975 0.55134925 -5.8008255
v -7.342175 0.55135125 8.17952625
v -5.76685 0.55135075 5.6616255
v -7.58715 0.27102425 -5.8008255
v -7.58715 0.256576 8.09552575
v -7.51437525 0.20712625 8.30810075
v -7.51437525 -0.491749 8.30810075
v -7.51437525 0.44425125 8.1375255
v -7.51437525 0.34760125 8.2675515
v -7.342175 0.41587625 8.30727575
v -7.5193 0.44372425 -5.8008255
v -7.58715 0.27102425 -5.8008255
v -7.58715 0.256576 8.09552575
v -7.58715 0.20285125 8.169426
v -7.342175 0.55134925 -5.8008255
v -7.342175 -0.576874 8.26820075
v 7.342175 -0.576874 8.26820075
v 7.342175 -0.491749 8.35332575
v -7.342175 -0.491749 8.35332575
v -7.58715 -0.49175075 -5.8008255
v -7.50199975 -0.57687575 -5.8008255
v -7.50202525 -0.576874 8.16477575
v -7.58715 -0.491749 8.20775125
v -7.45559975 -0.576874 8.23327625
v -7.51437525 -0.491749 8.30810075
v -7.51437525 -0.491749 8.30810075
v -7.51437525 0.34760125 8.2675515
v -7.342175 0.41587625 8.30727575
v -7.58715 0.20285125 8.169426
v -5.99197475 0.55134925 -5.9221755
v 7.342175 0.55135125 8.17952625
v 5.76685 0.55135075 5.6616255
v 7.342175 0.41587625 8.30727575
v -5.99197475 0.551349 -6.977251
v 5.75969975 0.55134925 -5.8008255
v 5.99197475 0.551349 -6.977251
v 5.99197475 0.55134925 -5.9221755
v 5.99197475 0.455099 -7.078701
v -5.99197475 0.455099 -7.078701
v 7.58715 -0.491749 8.20775125
v 7.58715 -0.49175075 -5.8008255
v 7.58715 0.05859925 -5.8008255
v 7.58715 0.114526 8.20775125
v 6.13399975 0.55134925 -5.8008255
v 7.58712475 0.27102425 -5.8008255
v 7.58715 0.256576 8.09552575
v 7.51437525 0.20712625 8.30810075
v 7.51437525 -0.491749 8.30810075
v 7.51437525 0.44425125 8.1375255
v 7.51437525 0.34760125 8.2675515
v 7.58715 0.256576 8.09552575
v 7.58712475 0.27102425 -5.8008255
v 7.5193 0.44372425 -5.8008255
v 7.58715 0.20285125 8.169426
v 7.342175 0.55134925 -5.8008255
v 7.58715 -0.49175075 -5.8008255
v 7.58715 -0.491749 8.20775125
v 7.50199975 -0.576874 8.16477575
v 7.50199975 -0.57687575 -5.8008255
v 7.51437525 -0.491749 8.30810075
v 7.455575 -0.576874 8.23327625
v 7.51437525 -0.491749 8.30810075
v 7.51437525 0.34760125 8.2675515
v 7.342175 0.41587625 8.30727575
v 7.58715 0.20285125 8.169426
v -5.99197475 -0.576876 -7.11010075
v -5.99197475 0.058599 -7.11010075
v 5.99197475 0.058599 -7.11010075
v 5.99197475 -0.576876 -7.11010075
v -5.99197475 0.058599 -7.11010075
v -5.99197475 0.271024 -7.11010075
v 5.99197475 0.271024 -7.11010075
v 5.99197475 0.058599 -7.11010075
v -5.99197475 0.271024 -7.11010075
v 5.99197475 0.271024 -7.11010075
v -5.9287 -9.73107525 7.42480225
v -5.9287 -0.434974 7.42480075
v -7.28625 -0.434974 7.42480075
v -7.28625 -9.73107525 7.42480225
v -7.28625 -9.73107525 6.0493775
v -7.28625 -0.43497425 6.049376
v -5.9287 -0.43497425 6.049376
v -5.9287 -9.73107525 6.0493775
v -7.14725025 -16.60054975 7.32272825
v -6.0677 -16.60054975 7.32272825
v -6.0677 -16.6005515 6.15142825
v -7.14725025 -16.6005515 6.15142825
v -5.92180025 -3.80959975 7.1094265
v -5.92180025 -4.58522475 7.1094265
v 5.916175 -4.58522475 7.1094265
v 5.916175 -3.80959975 7.1094265
v -5.92180025 -4.58522475 6.37035125
v -5.92180025 -3.80959975 6.37035125
v 5.916175 -3.80959975 6.37035125
v 5.916175 -4.58522475 6.37035125
v -6.308875 -4.1700245 6.0408765
v -6.308875 -4.9456495 6.0408765
v -6.308875 -4.9456515 -5.9337
v -6.308875 -4.17002625 -5.9337
v -7.16314975 -4.9456495 6.0408765
v -7.16314975 -4.1700245 6.0408765
v -7.16314975 -4.17002625 -5.9337
v -7.16314975 -4.9456515 -5.9337
v -7.53472525 -16.6005535 -8.030774
v -6.57872475 -16.6005535 -8.030774
v -6.57872475 -16.6005515 -6.78677375
v -7.53472525 -16.6005515 -6.78677375
v -6.095375 16.60054975 -7.35455325
v -6.095375 16.5267505 -8.35332775
v -6.90215025 16.52672575 -8.35332775
v -6.90215025 16.600525 -7.35455325
v -5.77245 14.28017625 -8.157053
v -5.77245 14.306651 -7.50752775
v -5.77242525 13.5867015 -7.412078
v -5.77245 13.555976 -8.09370325
v -6.105925 2.76437425 -6.5379515
v -7.25282475 3.2077495 -7.6125015
v -6.095375 3.2072745 -6.54892625
v -6.105925 2.76449925 -6.5354515
v -5.79217475 3.2068495 -6.5490765
v -5.79217475 3.2073495 -7.6125015
v -6.134575 1.56052425 -6.081201
v 6.134625 1.56052425 -6.081201
v 6.10554975 2.7827745 -6.1301265
v -6.10550025 2.7827745 -6.1301265
v 7.524125 -16.6005535 -8.030774
v 7.524125 -16.6005515 -6.78677375
v 6.56812475 -16.6005515 -6.78677375
v 6.56812475 -16.6005535 -8.030774
v 6.09542525 16.60054975 -7.35455325
v 6.90220025 16.600525 -7.35455325
v 6.90220025 16.52672575 -8.35332775
v 6.09542525 16.5267505 -8.35332775
v 5.7725 14.28017625 -8.157053
v 5.7725 13.555976 -8.09370325
v 5.7725 13.5867015 -7.412078
v 5.7725 14.306651 -7.50752775
v 6.10597525 2.76437425 -6.5379515
v 6.10597525 2.76449925 -6.5354515
v 6.09542525 3.2072745 -6.54892625
v 7.25287475 3.2077495 -7.6125015
v 5.79225025 3.2073495 -7.6125015
v 5.79225025 3.2068495 -6.5490765
v -5.46080025 13.60687625 -6.65975275
v -5.46625 13.01985075 -6.49895275
v 5.46625 13.01985075 -6.49895275
v 5.46080025 13.60687625 -6.65975275
v -5.862925 13.32942575 -6.919403
v -5.84267525 14.0425005 -6.99820275
v -6.04712475 14.34810075 -7.401753
v -6.04659975 13.62520125 -7.34282775
v -5.88555 3.53157475 -6.12617625
v -6.09485 3.3158745 -6.5031265
v -5.81632525 3.10957475 -6.12122625
v -6.09507525 2.87922425 -6.46755125
v -5.63407525 13.2763015 -7.30867775
v -5.634575 14.20757575 -7.38457775
v -5.63460025 14.16297625 -7.60012775
v -5.634575 13.2319755 -7.51867775
v -5.6159 3.2691495 -6.4927015
v -5.616475 3.2548745 -7.0899515
v -5.43760025 3.77704975 -5.736401
v -5.440925 3.43772475 -5.823151
v -5.81632525 3.10957475 -6.12122625
v 5.81632525 3.10957475 -6.12122625
v 5.440925 3.43772475 -5.823151
v 0.0 14.293851 -8.04025275
v 0.0 13.2591505 -7.949728
v -5.71710025 13.2591505 -7.949728
v -5.71710025 14.293851 -8.04025275
v -5.84267525 14.0425005 -6.99820275
v 5.84265 14.0425005 -6.99820275
v 5.43760025 3.77704975 -5.736401
v 5.862925 13.32942575 -6.919403
v 6.04659975 13.62520125 -7.34282775
v 6.04712475 14.34810075 -7.401753
v 5.84265 14.0425005 -6.99820275
v 6.04712475 14.34810075 -7.401753
v -6.04712475 14.34810075 -7.401753
v 5.88555 3.53157475 -6.12617625
v 6.09485 3.3158745 -6.5031265
v 5.81632525 3.10957475 -6.12122625
v 6.09507525 2.87922425 -6.46755125
v 5.63407525 13.2763015 -7.30867775
v 5.634575 13.2319755 -7.51867775
v 5.63460025 14.16297625 -7.60012775
v 5.634575 14.20757575 -7.38457775
v 5.6159 3.2691495 -6.4927015
v 5.616475 3.2548745 -7.0899515
v 5.712275 3.2052495 -7.5183015
v 0.0 3.2052495 -7.5183015
v 5.71710025 13.2591505 -7.949728
v -6.09507525 2.87922425 -6.46755125
v 6.09507525 2.87922425 -6.46755125
v 5.71710025 14.293851 -8.04025275
v -5.712275 3.2052495 -7.5183015
v -6.068975 16.59244925 -7.3448535
v -6.068975 16.5267505 -8.34482775
v -6.068975 14.31620125 -8.1507025
v -6.068975 14.373826 -7.15072775
v 6.06955 16.59244925 -7.3448535
v 6.06955 14.373826 -7.15072775
v 6.06955 14.31620125 -8.1507025
v 6.06955 16.5267505 -8.34482775
v 6.15025 -3.5992765 -7.4222255
v 6.15025 -4.4049015 -7.4222255
v -6.23837525 -4.4049015 -7.4222255
v -6.23837525 -3.5992765 -7.4222255
v 6.15025 -4.4049015 -6.5348755
v 6.15025 -3.5992765 -6.5348755
v -6.23837525 -3.5992765 -6.5348755
v -6.23837525 -4.4049015 -6.5348755
v 5.92872475 -9.73107525 7.42480225
v 7.286275 -9.73107525 7.42480225
v 7.286275 -0.434974 7.42480075
v 5.92872475 -0.434974 7.42480075
v 7.286275 -9.73107525 6.0493775
v 5.92872475 -9.73107525 6.0493775
v 5.92872475 -0.43497425 6.049376
v 7.286275 -0.43497425 6.049376
v 6.06772525 -16.60054975 7.32272825
v 7.147275 -16.60054975 7.32272825
v 7.147275 -16.6005515 6.15142825
v 6.06772525 -16.6005515 6.15142825
v 6.292675 -4.1700245 6.01390125
v 6.292675 -4.17002625 -5.9337
v 6.292675 -4.9456515 -5.9337
v 6.292675 -4.9456495 6.01390125
v 7.14694975 -4.9456495 6.01390125
v 7.14694975 -4.9456515 -5.9337
v 7.14694975 -4.17002625 -5.9337
v 7.14694975 -4.1700245 6.01390125
v -6.786025 -0.675726 -6.60945075
v -6.786025 -2.20995125 -6.60945025
v 6.786075 -2.20995125 -6.60945025
v 6.786075 -0.675726 -6.60945075
v -6.786025 -2.20995125 -7.3284005
v -6.786025 -0.675726 -7.328401
v 6.786075 -0.675726 -7.328401
v 6.786075 -2.20995125 -7.3284005
v -6.3705 -0.67572425 6.02322575
v -6.3705 -2.2099495 6.02322625
v -6.3705 -2.209951 -5.92609975
v -6.3705 -0.67572575 -5.92610025
v -7.08945 -2.2099495 6.02322625
v -7.08945 -0.67572425 6.02322575
v -7.08945 -0.67572575 -5.92610025
v -7.08945 -2.209951 -5.92609975
v -5.92180025 -2.20994925 6.39157625
v -5.92180025 -0.57687425 6.39157575
v 5.916175 -0.57687425 6.39157575
v 5.916175 -2.20994925 6.39157625
v -5.92180025 -0.576874 7.110526
v -5.92180025 -2.20994925 7.1105265
v 5.916175 -2.20994925 7.1105265
v 5.916175 -0.576874 7.110526
v 6.366375 -0.67572425 5.99625075
v 6.366375 -0.67572575 -5.92610025
v 6.366375 -2.209951 -5.92609975
v 6.366375 -2.2099495 5.996251
v 7.08532475 -2.2099495 5.996251
v 7.08532475 -2.209951 -5.92609975
v 7.08532475 -0.67572575 -5.92610025
v 7.08532475 -0.67572425 5.99625075
v -5.70885 0.72562425 -5.70065075
v -5.70885 0.72562575 5.56965075
v -5.66085 0.87245075 5.52165025
v -5.66085 0.87244925 -5.65265025
v -5.70885 0.46639925 -5.70065075
v -5.70885 0.46640075 5.56965075
v 5.708725 0.72562425 -5.70065075
v 5.660725 0.87244925 -5.65265025
v 5.660725 0.87245075 5.52165025
v 5.708725 0.72562575 5.56965075
v 5.708725 0.46640075 5.56965075
v 5.708725 0.46639925 -5.70065075
vn -0.0000 1.0000 -0.0000
vn -0.0000 -1.0000 -0.0000
vn 0.0139 0.9991 -0.0408
vn 0.0138 0.9991 -0.0407
vn 0.0005 0.0305 0.9995
vn 0.0002 0.0307 0.9995
vn 0.0001 0.0307 0.9995
vn -0.0000 0.0308 0.9995
vn 0.0003 0.0306 0.9995
vn 0.0003 0.0307 0.9995
vn -0.0003 0.0307 0.9995
vn -0.0138 0.9991 -0.0407
vn -0.0139 0.9991 -0.0408
vn -0.0005 0.0305 0.9995
vn -0.0000 -0.0000 -1.0000
vn -0.3462 -0.0000 -0.9382
vn -0.6495 -0.0000 -0.7603
vn -0.6496 -0.0000 -0.7603
vn 0.3462 -0.0000 -0.9382
vn 0.6496 -0.0000 -0.7603
vn -0.0000 -0.0000 1.0000
vn 0.0001 -0.0000 1.0000
vn 0.9995 -0.0310 -0.0000
vn 0.9993 -0.0366 -0.0000
vn 0.9993 -0.0370 -0.0000
vn -0.9997 0.0226 -0.0000
vn -0.9998 0.0217 -0.0000
vn -1.0000 -0.0000 -0.0000
vn -0.9999 0.0168 -0.0010
vn -0.9999 0.0173 -0.0009
vn 1.0000 -0.0090 -0.0000
vn 0.9999 -0.0124 -0.0000
vn 0.9998 -0.0215 -0.0000
vn 0.9998 -0.0221 -0.0000
vn -1.0000 0.0069 -0.0000
vn -1.0000 0.0070 -0.0000
vn -0.9999 0.0116 -0.0000
vn -0.9999 0.0113 -0.0000
vn 1.0000 -0.0000 -0.0000
vn -0.9998 0.0222 -0.0000
vn -0.9997 0.0229 -0.0001
vn 0.9999 -0.0125 -0.0000
vn 0.9999 -0.0115 -0.0000
vn 0.9997 -0.0238 -0.0001
vn 0.9997 -0.0238 -0.0000
vn 1.0000 -0.0014 -0.0000
vn -0.9995 -0.0312 -0.0000
vn -0.9993 -0.0362 -0.0000
vn -0.9994 -0.0359 -0.0000
vn 0.9997 0.0228 -0.0000
vn 0.9998 0.0210 -0.0000
vn 0.9998 0.0209 -0.0000
vn 0.9999 0.0173 -0.0009
vn 0.9999 0.0168 -0.0010
vn -1.0000 -0.0090 -0.0000
vn -0.9998 -0.0212 -0.0000
vn -0.9998 -0.0207 -0.0000
vn -0.9999 -0.0124 -0.0000
vn 1.0000 0.0069 -0.0000
vn 0.9999 0.0105 -0.0000
vn 0.9999 0.0107 -0.0000
vn 1.0000 0.0070 -0.0000
vn 0.9997 0.0229 -0.0001
vn 0.9998 0.0222 -0.0000
vn -0.9999 -0.0115 -0.0000
vn -0.9999 -0.0125 -0.0000
vn -0.9997 -0.0238 -0.0001
vn -0.0000 1.0000 0.0005
vn -0.9997 -0.0238 -0.0000
vn -1.0000 -0.0014 -0.0000
vn -0.0000 0.9997 -0.0251
vn -0.0000 0.9793 -0.2026
vn -0.0000 -0.9997 0.0239
vn -0.0000 0.0872 0.9962
vn -0.0000 -0.0875 -0.9962
vn 0.9999 -0.0101 -0.0000
vn -0.9999 -0.0101 -0.0000
vn 0.9998 -0.0202 -0.0000
vn -0.9998 -0.0202 -0.0000
vn -0.0000 -0.0907 0.9959
vn -0.0000 -0.0759 0.9971
vn -0.0000 -0.0765 0.9971
vn -0.0000 0.0585 -0.9983
vn -0.0000 0.0366 -0.9993
vn -0.0000 0.0357 -0.9994
vn -0.0000 0.0871 0.9962
vn -0.0000 0.0945 0.9955
vn -0.0000 0.0944 0.9955
vn -0.0002 -0.0666 -0.9978
vn -0.0000 -0.0872 -0.9962
vn -0.0006 -0.0865 -0.9963
vn -0.0000 -0.0296 0.9996
vn -0.0000 0.0258 0.9997
vn -0.0000 0.0255 0.9997
vn -0.0000 -0.0303 0.9995
vn -0.0000 -0.0006 -1.0000
vn -0.0000 -0.0040 -1.0000
vn -0.0000 0.0118 -0.9999
vn -0.0000 0.0759 0.9971
vn -0.0000 0.0753 0.9972
vn -0.0000 -0.0284 -0.9996
vn -0.0007 -0.0867 -0.9962
vn -0.0003 -0.0668 -0.9978
vn 0.0004 0.1314 0.9913
vn -0.0000 0.1074 0.9942
vn -0.0000 0.1070 0.9943
vn 0.0006 0.0829 0.9966
vn -0.0000 -0.0227 -0.9997
vn -0.0000 0.9990 -0.0450
vn -0.0000 0.0358 -0.9994
vn 0.0002 -0.0666 -0.9978
vn 0.0006 -0.0865 -0.9963
vn 0.0003 -0.0668 -0.9978
vn 0.0007 -0.0867 -0.9962
vn -0.0004 0.1314 0.9913
vn -0.0006 0.0829 0.9966
vn 0.0138 -0.0812 -0.9966
vn 0.0109 -0.0897 -0.9959
vn 0.0056 -0.1052 -0.9944
vn 0.0066 -0.0724 -0.9974
vn 0.0078 -0.0739 -0.9972
vn -1.0000 -0.0003 -0.0000
vn -1.0000 -0.0005 -0.0000
vn -0.0066 -0.0724 -0.9974
vn -0.0078 -0.0739 -0.9972
vn -0.0138 -0.0812 -0.9966
vn -0.0056 -0.1052 -0.9944
vn -0.0109 -0.0897 -0.9959
vn 1.0000 -0.0003 -0.0000
vn 1.0000 -0.0005 -0.0000
vn -0.0000 -0.9983 0.0575
vn -0.0000 0.9978 -0.0656
vn -0.0000 0.1406 0.9901
vn -0.0000 0.3107 0.9505
vn -0.0000 0.1406 -0.9901
vn -0.0000 0.3107 -0.9505
vn -0.1491 0.1589 0.9760
vn -0.1164 -0.3704 0.9216
vn 0.1164 -0.3704 0.9216
vn 0.1491 0.1589 0.9760
vn -0.8794 -0.3775 0.2902
vn -0.9480 0.0420 0.3154
vn -0.9239 -0.3827 -0.0000
vn -0.2716 0.8843 0.3798
vn -0.9825 0.1861 0.0002
vn -0.9764 0.2035 0.0725
vn -0.6010 0.1142 0.7911
vn -0.5280 -0.3758 0.7616
vn -0.7399 0.6322 0.2299
vn -0.6646 0.4183 0.6191
vn -0.2097 0.5190 0.8287
vn -0.7652 0.6439 0.0002
vn -0.9825 0.1862 0.0002
vn -0.9764 0.2036 0.0725
vn -0.9671 0.1377 0.2139
vn -0.2697 0.9630 0.0001
vn -0.1018 -0.7096 0.6973
vn 0.1018 -0.7096 0.6972
vn 0.1164 -0.3704 0.9215
vn -0.1164 -0.3705 0.9215
vn -0.7070 -0.7072 -0.0000
vn -0.6493 -0.7393 0.1784
vn -0.8793 -0.3775 0.2902
vn -0.3858 -0.7485 0.5393
vn -0.6646 0.4183 0.6192
vn -0.2097 0.5189 0.8287
vn -0.9671 0.1376 0.2139
vn 0.2716 0.8843 0.3798
vn 0.2097 0.5190 0.8287
vn -0.0000 0.9288 -0.3705
vn -0.0000 0.4709 -0.8822
vn 0.8794 -0.3775 0.2902
vn 0.9239 -0.3827 -0.0000
vn 1.0000 0.0001 -0.0000
vn 0.9480 0.0420 0.3154
vn 0.9825 0.1861 0.0002
vn 0.9764 0.2036 0.0725
vn 0.6010 0.1142 0.7911
vn 0.5280 -0.3758 0.7616
vn 0.7399 0.6322 0.2299
vn 0.6646 0.4183 0.6191
vn 0.9825 0.1861 0.0003
vn 0.7652 0.6438 0.0002
vn 0.9671 0.1377 0.2140
vn 0.2697 0.9630 0.0001
vn 0.6492 -0.7394 0.1784
vn 0.7070 -0.7072 -0.0000
vn 0.3858 -0.7485 0.5393
vn 0.6646 0.4182 0.6192
vn 0.2097 0.5189 0.8287
vn 0.9671 0.1376 0.2140
vn -0.0000 0.0843 -0.9964
vn -0.0000 -0.0074 1.0000
vn -0.0000 -0.0074 -1.0000
vn -0.0000 -0.0149 0.9999
vn -0.0000 -0.0149 -0.9999
vn -0.0000 0.9973 -0.0737
vn 1.0000 -0.0010 -0.0000
vn 1.0000 -0.0009 -0.0000
vn 0.9304 -0.0312 -0.3652
vn 0.6762 -0.0343 -0.7359
vn 0.6782 -0.0343 -0.7341
vn 0.9997 -0.0238 0.0012
vn 1.0000 -0.0019 -0.0000
vn -0.0000 0.0400 0.9992
vn -1.0000 -0.0009 -0.0000
vn -1.0000 -0.0010 -0.0000
vn -0.9302 -0.0312 -0.3657
vn -0.9997 -0.0238 -0.0003
vn -0.6782 -0.0343 -0.7341
vn -0.6762 -0.0343 -0.7359
vn -1.0000 -0.0019 -0.0000
vn -0.2579 0.3713 0.8920
vn -0.3613 0.1502 0.9203
vn 0.3613 0.1502 0.9203
vn 0.2579 0.3713 0.8920
vn -0.7904 0.0853 0.6066
vn -0.4798 0.4782 0.7356
vn -0.4672 0.5844 0.6635
vn -0.9076 0.0342 0.4184
vn -0.7711 -0.0282 0.6361
vn -0.8431 -0.0036 0.5377
vn -0.4349 -0.5078 0.7437
vn -0.5332 -0.4406 0.7222
vn -1.0000 -0.0007 0.0024
vn -1.0000 -0.0005 0.0002
vn -1.0000 -0.0004 0.0005
vn -1.0000 -0.0008 0.0025
vn -1.0000 -0.0018 0.0010
vn -0.3272 -0.0543 0.9434
vn -0.1948 -0.4146 0.8889
vn 0.4349 -0.5078 0.7436
vn 0.1948 -0.4146 0.8889
vn -0.0000 -0.0650 -0.9979
vn 0.4798 0.4782 0.7356
vn 0.3272 -0.0543 0.9434
vn 0.7904 0.0853 0.6066
vn 0.9076 0.0342 0.4184
vn 0.4672 0.5843 0.6636
vn 0.4673 0.5843 0.6635
vn -0.4672 0.5843 0.6635
vn 0.7711 -0.0282 0.6361
vn 0.8431 -0.0036 0.5377
vn 0.5332 -0.4406 0.7222
vn 1.0000 -0.0007 0.0024
vn 1.0000 -0.0008 0.0025
vn 1.0000 -0.0004 0.0005
vn 1.0000 -0.0005 0.0002
vn 1.0000 -0.0018 0.0010
vn -0.0000 -0.0429 -0.9991
vn -0.5332 -0.4405 0.7222
vn 0.5332 -0.4405 0.7222
vn -0.9901 0.1406 -0.0000
vn -0.9505 0.3107 -0.0000
vn 0.9901 0.1406 -0.0000
vn 0.9505 0.3107 -0.0000
vt 0.549200 0.359700
vt 0.356000 0.359700
vt 0.856200 0.017400
vt 0.856200 0.213100
vt 0.866800 0.213100
vt 0.866800 0.017400
vt 0.151600 0.352600
vt 0.344800 0.352600
vt 0.311500 0.015400
vt 0.310300 0.016200
vt 0.309700 0.271900
vt 0.310900 0.272700
vt 0.552500 0.247400
vt 0.553000 0.041900
vt 0.550900 0.039400
vt 0.550400 0.249800
vt 0.572900 0.247400
vt 0.573400 0.041900
vt 0.309700 0.018100
vt 0.309100 0.269900
vt 0.550300 0.273300
vt 0.551000 0.016000
vt 0.462600 0.665500
vt 0.462900 0.676600
vt 0.468400 0.676500
vt 0.468100 0.665300
vt 0.982700 0.732900
vt 0.982900 0.725300
vt 0.977500 0.732900
vt 0.773500 0.725300
vt 0.778900 0.732900
vt 0.659400 0.638100
vt 0.653800 0.638000
vt 0.653500 0.649100
vt 0.659100 0.649300
vt 0.773700 0.732900
vt 0.582500 0.231600
vt 0.582500 0.257600
vt 0.792900 0.257600
vt 0.792900 0.231600
vt 0.824200 0.635300
vt 0.822800 0.636800
vt 0.847700 0.635300
vt 0.822800 0.649800
vt 0.824000 0.652800
vt 0.847700 0.654700
vt 0.850900 0.635300
vt 0.850900 0.654700
vt 0.822800 0.646200
vt 0.827000 0.654700
vt 0.835700 0.213100
vt 0.840700 0.213100
vt 0.840700 0.015400
vt 0.835700 0.015400
vt 0.869800 0.658800
vt 0.846400 0.658800
vt 0.871300 0.660300
vt 0.871300 0.673400
vt 0.846400 0.678200
vt 0.870100 0.676300
vt 0.843200 0.658800
vt 0.843200 0.678200
vt 0.871300 0.669700
vt 0.867100 0.678200
vt 0.352700 0.883200
vt 0.352600 0.885200
vt 0.352600 0.888100
vt 0.550300 0.888400
vt 0.550300 0.885400
vt 0.550200 0.883500
vt 0.081900 0.211400
vt 0.082100 0.230000
vt 0.102100 0.229800
vt 0.102000 0.211300
vt 0.476400 0.860400
vt 0.476400 0.839100
vt 0.395300 0.843900
vt 0.395300 0.867800
vt 0.089600 0.928400
vt 0.097000 0.847300
vt 0.073000 0.847300
vt 0.068300 0.928400
vt 0.079900 0.359000
vt 0.062800 0.360300
vt 0.067200 0.411100
vt 0.084300 0.410100
vt 0.164900 0.872600
vt 0.164900 0.874900
vt 0.278900 0.875000
vt 0.278900 0.845500
vt 0.104000 0.617000
vt 0.075800 0.617000
vt 0.074700 0.731000
vt 0.104200 0.731000
vt 0.801000 0.686400
vt 0.818100 0.686300
vt 0.812500 0.647400
vt 0.801300 0.647800
vt 0.102600 0.588700
vt 0.075500 0.588700
vt 0.818600 0.635000
vt 0.813100 0.634900
vt 0.649200 0.557000
vt 0.706300 0.733700
vt 0.714100 0.733000
vt 0.654600 0.555200
vt 0.678900 0.739000
vt 0.679400 0.741300
vt 0.702700 0.738500
vt 0.711500 0.741300
vt 0.164900 0.846600
vt 0.662400 0.994900
vt 0.743800 0.995200
vt 0.741700 0.971300
vt 0.660600 0.973700
vt 0.067200 0.942900
vt 0.067500 0.964200
vt 0.148500 0.958400
vt 0.148200 0.934400
vt 0.636600 0.944900
vt 0.585500 0.941100
vt 0.584700 0.958300
vt 0.635600 0.962000
vt 0.973800 0.979700
vt 0.857800 0.962700
vt 0.860400 0.992100
vt 0.974000 0.981900
vt 0.378400 0.924300
vt 0.264400 0.925700
vt 0.264800 0.955200
vt 0.378800 0.952500
vt 0.874200 0.682300
vt 0.835600 0.682900
vt 0.835200 0.694000
vt 0.874200 0.699500
vt 0.407000 0.952500
vt 0.406700 0.925300
vt 0.822800 0.694700
vt 0.822800 0.700200
vt 0.436700 0.619000
vt 0.431000 0.619500
vt 0.447400 0.806800
vt 0.454800 0.804200
vt 0.460100 0.806900
vt 0.482200 0.798700
vt 0.481600 0.796400
vt 0.462600 0.688000
vt 0.462600 0.706200
vt 0.661200 0.706200
vt 0.661200 0.688000
vt 0.453400 0.813200
vt 0.971500 0.953800
vt 0.781800 0.950600
vt 0.879800 0.950600
vt 0.879800 0.942400
vt 0.781800 0.942400
vt 0.220400 0.008800
vt 0.220400 0.005000
vt 0.027200 0.005000
vt 0.027200 0.008800
vt 0.977700 0.743800
vt 0.879800 0.743800
vt 0.879800 0.752000
vt 0.977700 0.752000
vt 0.557400 0.381900
vt 0.557400 0.371700
vt 0.364800 0.371700
vt 0.364800 0.381900
vt 0.977800 0.950600
vt 0.977800 0.942400
vt 0.781900 0.743800
vt 0.781900 0.752000
vt 0.778000 0.459300
vt 0.778000 0.497400
vt 0.985000 0.497400
vt 0.985000 0.459300
vt 0.985000 0.448600
vt 0.985000 0.410400
vt 0.778000 0.410400
vt 0.778000 0.448600
vt 0.081900 0.207100
vt 0.100400 0.207100
vt 0.100400 0.187000
vt 0.081900 0.187000
vt 0.623100 0.608500
vt 0.623100 0.414400
vt 0.431500 0.414400
vt 0.431500 0.608500
vt 0.869000 0.654700
vt 0.870700 0.653000
vt 0.871300 0.646200
vt 0.871300 0.635300
vt 0.156000 0.888100
vt 0.156000 0.883200
vt 0.352600 0.883600
vt 0.871300 0.649800
vt 0.825100 0.678200
vt 0.823300 0.676500
vt 0.822800 0.669700
vt 0.822800 0.658800
vt 0.659100 0.624300
vt 0.659100 0.621300
vt 0.462600 0.621300
vt 0.462600 0.626300
vt 0.659100 0.625900
vt 0.822800 0.673400
vt 0.312900 0.717300
vt 0.312900 0.557900
vt 0.289300 0.557900
vt 0.289300 0.717300
vt 0.348400 0.717300
vt 0.348400 0.557900
vt 0.324900 0.557900
vt 0.324900 0.717300
vt 0.291100 0.835100
vt 0.311100 0.835100
vt 0.326600 0.835100
vt 0.346700 0.835100
vt 0.462600 0.307100
vt 0.462600 0.319700
vt 0.663900 0.319700
vt 0.663900 0.307100
vt 0.462600 0.738000
vt 0.462600 0.750700
vt 0.663800 0.750700
vt 0.663800 0.738000
vt 0.982500 0.328600
vt 0.982500 0.314000
vt 0.778000 0.314000
vt 0.778000 0.328600
vt 0.982500 0.355300
vt 0.982500 0.340600
vt 0.778000 0.340600
vt 0.778000 0.355300
vt 0.056000 0.990200
vt 0.055600 0.908800
vt 0.038500 0.909400
vt 0.039600 0.990800
vt 0.136700 0.924000
vt 0.136000 0.842800
vt 0.118900 0.842500
vt 0.120300 0.923700
vt 0.042800 0.419400
vt 0.029000 0.419900
vt 0.031000 0.471200
vt 0.044800 0.470600
vt 0.132300 0.406400
vt 0.132900 0.355400
vt 0.118600 0.393800
vt 0.056200 0.792200
vt 0.052200 0.678200
vt 0.032700 0.678900
vt 0.036700 0.792900
vt 0.136200 0.612400
vt 0.116700 0.612200
vt 0.115400 0.726200
vt 0.135000 0.726400
vt 0.119100 0.355200
vt 0.051800 0.649900
vt 0.032000 0.650700
vt 0.136200 0.584200
vt 0.113100 0.393800
vt 0.113000 0.406300
vt 0.560400 0.394200
vt 0.547900 0.394200
vt 0.547900 0.399700
vt 0.560300 0.399700
vt 0.369300 0.394200
vt 0.369300 0.399400
vt 0.111200 0.583900
vt 0.560300 0.275300
vt 0.769700 0.275300
vt 0.769700 0.268400
vt 0.560300 0.268400
vt 0.062800 0.975700
vt 0.062600 0.992100
vt 0.144000 0.991500
vt 0.144200 0.974400
vt 0.147200 0.889900
vt 0.147200 0.906300
vt 0.228300 0.908800
vt 0.228300 0.891700
vt 0.633800 0.976000
vt 0.582500 0.975200
vt 0.582300 0.989000
vt 0.633600 0.989800
vt 0.664600 0.900500
vt 0.677100 0.914400
vt 0.715600 0.900500
vt 0.260800 0.971300
vt 0.260500 0.990900
vt 0.374500 0.992400
vt 0.374800 0.972800
vt 0.458700 0.894200
vt 0.344700 0.893900
vt 0.344700 0.913500
vt 0.458700 0.913700
vt 0.715600 0.914400
vt 0.402800 0.992400
vt 0.403100 0.972600
vt 0.486900 0.894500
vt 0.664500 0.919900
vt 0.677000 0.919900
vt 0.751400 0.892800
vt 0.751300 0.887300
vt 0.738900 0.887300
vt 0.739000 0.892800
vt 0.560300 0.887600
vt 0.560300 0.892800
vt 0.486900 0.919600
vt 0.147200 0.399700
vt 0.357500 0.399700
vt 0.351600 0.371500
vt 0.153000 0.371500
vt 0.799300 0.507000
vt 0.786900 0.506900
vt 0.789300 0.514000
vt 0.805300 0.514000
vt 0.976700 0.506100
vt 0.977500 0.514300
vt 0.984200 0.506100
vt 0.781800 0.924500
vt 0.773500 0.924200
vt 0.773700 0.941900
vt 0.773700 0.751600
vt 0.977500 0.706900
vt 0.984200 0.715100
vt 0.799300 0.714300
vt 0.805300 0.707200
vt 0.789300 0.707200
vt 0.786900 0.714300
vt 0.976700 0.715100
vt 0.985900 0.941900
vt 0.986000 0.924200
vt 0.977800 0.924500
vt 0.985900 0.751600
vt 0.238700 0.337500
vt 0.238700 0.320300
vt 0.031700 0.320300
vt 0.031700 0.337500
vt 0.238700 0.310900
vt 0.238700 0.293700
vt 0.031700 0.293700
vt 0.031700 0.310900
vt 0.360400 0.717300
vt 0.384000 0.717300
vt 0.384000 0.557900
vt 0.360400 0.557900
vt 0.395900 0.712800
vt 0.419500 0.712800
vt 0.419500 0.553500
vt 0.395900 0.553500
vt 0.362100 0.835100
vt 0.382200 0.835100
vt 0.397700 0.830600
vt 0.417800 0.830600
vt 0.379800 0.453000
vt 0.379800 0.440700
vt 0.147200 0.440700
vt 0.147200 0.453000
vt 0.379800 0.546300
vt 0.379800 0.534000
vt 0.147200 0.534000
vt 0.147200 0.546300
vt 0.249300 0.329600
vt 0.249300 0.342000
vt 0.453400 0.342000
vt 0.453400 0.329600
vt 0.462600 0.285200
vt 0.462600 0.297500
vt 0.666600 0.297500
vt 0.666600 0.285200
vt 0.663900 0.342000
vt 0.663900 0.329600
vt 0.462600 0.329600
vt 0.462600 0.342000
vt 0.694900 0.812900
vt 0.694900 0.800500
vt 0.493700 0.800500
vt 0.493700 0.812900
vt 0.851700 0.213100
vt 0.851700 0.017400
vt 0.849100 0.018200
vt 0.849100 0.212300
vt 0.871300 0.213100
vt 0.871300 0.017400
vt 0.873900 0.212300
vt 0.873900 0.018200
vt 0.009100 0.745300
vt 0.022100 0.745300
vt 0.022100 0.493600
vt 0.009100 0.493600
vt 0.022100 0.750500
vt 0.011600 0.750300
vt 0.009000 0.990400
vt 0.018400 0.990600
vt 0.053100 0.249700
vt 0.053100 0.256100
vt 0.293600 0.276800
vt 0.250300 0.249800
vt 0.005300 0.990300
vt 0.009200 0.752200
vt 0.010100 0.748200
vt 0.022100 0.748300
vt 0.293100 0.280100
vt 0.295700 0.281100
vt 0.296600 0.277300
vt 0.053300 0.280200
vt 0.053400 0.283300
vt 0.292600 0.283600
vt 0.294200 0.284200
vt 0.053200 0.276800
vt 0.307700 0.018100
vt 0.307100 0.269900
vt 0.550300 0.275300
vt 0.310100 0.274700
vt 0.308200 0.273600
vt 0.307700 0.273000
vt 0.007700 0.748600
vt 0.006400 0.745400
vt 0.010100 0.750900
vt 0.051000 0.253700
vt 0.293600 0.024500
vt 0.250300 0.051500
vt 0.296600 0.024000
vt 0.032800 0.253700
vt 0.053100 0.051600
vt 0.032800 0.047600
vt 0.051000 0.047600
vt 0.030400 0.047600
vt 0.030400 0.253700
vt 0.022100 0.488400
vt 0.018100 0.248300
vt 0.008600 0.248500
vt 0.011600 0.488500
vt 0.053100 0.045200
vt 0.005000 0.248500
vt 0.009200 0.486700
vt 0.010100 0.490600
vt 0.022100 0.490500
vt 0.293100 0.021200
vt 0.295700 0.020300
vt 0.292600 0.017800
vt 0.053400 0.018000
vt 0.053300 0.021100
vt 0.294200 0.017100
vt 0.053200 0.024600
vt 0.551000 0.013900
vt 0.310700 0.013400
vt 0.308800 0.014400
vt 0.308300 0.015100
vt 0.007700 0.490300
vt 0.006400 0.493500
vt 0.010100 0.488000
vt 0.824400 0.016600
vt 0.813500 0.016600
vt 0.813500 0.222000
vt 0.824400 0.222000
vt 0.013100 0.029900
vt 0.009400 0.029900
vt 0.009400 0.235300
vt 0.013100 0.235300
vt 0.027200 0.253700
vt 0.027200 0.047600
vt 0.277100 0.717300
vt 0.278100 0.557900
vt 0.254800 0.557800
vt 0.253800 0.717200
vt 0.173700 0.716900
vt 0.170400 0.557500
vt 0.147200 0.558000
vt 0.150400 0.717400
vt 0.255400 0.835000
vt 0.273900 0.835100
vt 0.155200 0.835100
vt 0.173700 0.834700
vt 0.462600 0.715200
vt 0.462600 0.728500
vt 0.663800 0.728500
vt 0.663800 0.715200
vt 0.511400 0.861800
vt 0.511400 0.875100
vt 0.712700 0.875100
vt 0.712700 0.861800
vt 0.982500 0.399700
vt 0.982500 0.386400
vt 0.778000 0.386400
vt 0.778000 0.399700
vt 0.982500 0.377500
vt 0.982500 0.364200
vt 0.778000 0.364200
vt 0.778000 0.377500
vt 0.492800 0.839100
vt 0.492800 0.860400
vt 0.801000 0.700200
vt 0.818200 0.700100
vt 0.480900 0.677200
vt 0.480600 0.665500
vt 0.711600 0.741000
vt 0.740800 0.741800
vt 0.659400 0.679600
vt 0.658100 0.661400
vt 0.147200 0.430800
vt 0.357500 0.430800
vt 0.357000 0.409800
vt 0.147700 0.409800
vt 0.644200 0.975100
vt 0.646100 0.996400
vt 0.888000 0.699500
vt 0.888000 0.682300
vt 0.641400 0.638200
vt 0.641100 0.649900
vt 0.453100 0.812900
vt 0.427000 0.826200
vt 0.463800 0.634700
vt 0.462600 0.652900
vt 0.599400 0.031700
vt 0.599700 0.042000
vt 0.787300 0.042000
vt 0.787500 0.031700
vt 0.590400 0.035900
vt 0.590800 0.023600
vt 0.583600 0.017600
vt 0.583000 0.030200
vt 0.590100 0.205000
vt 0.582500 0.208200
vt 0.590600 0.212300
vt 0.582600 0.215800
vt 0.740000 0.339200
vt 0.755800 0.336500
vt 0.754700 0.332900
vt 0.738900 0.335700
vt 0.570400 0.368600
vt 0.569200 0.358400
vt 0.600200 0.201300
vt 0.599700 0.207200
vt 0.593500 0.214900
vt 0.793500 0.214900
vt 0.787200 0.207200
vt 0.879800 0.924500
vt 0.593000 0.022200
vt 0.793900 0.022200
vt 0.786700 0.201300
vt 0.796500 0.035900
vt 0.803900 0.030200
vt 0.803400 0.017600
vt 0.796100 0.023600
vt 0.797500 0.013500
vt 0.589500 0.013500
vt 0.796900 0.205000
vt 0.804400 0.208200
vt 0.796300 0.212300
vt 0.804300 0.215800
vt 0.585100 0.384000
vt 0.585000 0.380300
vt 0.569200 0.382600
vt 0.569300 0.386400
vt 0.755300 0.358000
vt 0.753200 0.348000
vt 0.588700 0.222000
vt 0.798300 0.222000
vt 0.892700 0.683000
vt 0.892200 0.700200
vt 0.930400 0.700200
vt 0.930900 0.683000
vt 0.875900 0.678100
vt 0.914100 0.678200
vt 0.913600 0.661000
vt 0.875400 0.660900
vt 0.220200 0.717300
vt 0.243500 0.717000
vt 0.241500 0.557700
vt 0.218200 0.558000
vt 0.182700 0.717000
vt 0.206000 0.717300
vt 0.208200 0.558000
vt 0.184900 0.557600
vt 0.224000 0.835100
vt 0.242600 0.834800
vt 0.183400 0.834800
vt 0.201900 0.835100
vt 0.379800 0.524100
vt 0.379800 0.497800
vt 0.147200 0.497800
vt 0.147200 0.524100
vt 0.379800 0.488600
vt 0.379800 0.462300
vt 0.147200 0.462300
vt 0.147200 0.488600
vt 0.249300 0.293400
vt 0.249300 0.319700
vt 0.453400 0.319700
vt 0.453400 0.293400
vt 0.782400 0.275700
vt 0.782400 0.302000
vt 0.986500 0.302000
vt 0.986500 0.275700
vt 0.703800 0.852800
vt 0.703800 0.824800
vt 0.502600 0.824800
vt 0.502600 0.852800
vt 0.663800 0.790600
vt 0.663800 0.762600
vt 0.462600 0.762600
vt 0.462600 0.790600
vt 0.356000 0.355300
vt 0.549200 0.355300
vt 0.548400 0.352600
vt 0.356800 0.352600
vt 0.151600 0.357100
vt 0.152400 0.359700
vt 0.344000 0.359700
vt 0.344800 0.357100
s 0
usemtl material
f 1/1/1 2/2/1 3/2/1
f 3/2/1 4/1/1 1/1/1
f 5/3/1 6/4/1 7/4/1
f 7/4/1 8/3/1 5/3/1
f 9/5/1 10/6/1 11/6/1
f 11/6/1 12/5/1 9/5/1
f 13/7/1 14/8/1 15/8/1
f 15/8/1 16/7/1 13/7/1
f 17/9/2 18/10/2 19/11/2
f 19/11/2 20/12/2 17/9/2
f 21/13/2 22/14/2 23/15/2
f 23/15/2 24/16/2 21/13/2
f 24/16/2 23/15/2 17/9/2
f 17/9/2 20/12/2 24/16/2
f 22/14/2 21/13/2 25/17/2
f 25/17/2 26/18/2 22/14/2
f 19/11/2 18/10/2 27/19/2
f 27/19/2 28/20/2 19/11/2
f 20/12/2 29/21/2 24/16/2
f 23/15/2 30/22/2 17/9/2
f 31/23/3 32/24/3 33/25/3
f 33/25/4 34/26/4 31/23/4
f 35/27/5 36/28/6 37/29/7
f 38/30/8 39/31/8 37/29/8
f 37/29/9 36/28/10 38/30/11
s 1
f 40/32/12 41/33/12 42/34/12
s 0
f 42/34/13 43/35/13 40/32/13
f 44/36/14 39/31/14 38/30/14
f 45/37/2 46/38/2 47/39/2
f 47/39/2 48/40/2 45/37/2
s 1
f 49/41/15 50/42/15 51/43/16
f 52/44/15 53/45/15 54/46/16
f 55/47/17 51/43/16 54/46/16
f 54/46/16 56/48/18 55/47/17
f 51/43/16 57/49/15 52/44/15
f 52/44/15 54/46/16 51/43/16
f 53/45/15 58/50/15 54/46/16
s 0
f 59/51/15 60/52/15 61/53/15
f 61/53/15 62/54/15 59/51/15
s 1
f 63/55/15 64/56/19 65/57/15
f 66/58/15 67/59/19 68/60/15
f 69/61/20 70/62/20 67/59/19
f 67/59/19 64/56/19 69/61/20
f 64/56/19 67/59/19 66/58/15
f 66/58/15 71/63/15 64/56/19
f 68/60/15 67/59/19 72/64/15
s 0
f 73/65/21 74/66/21 75/67/21
f 73/65/21 75/67/21 76/68/21
f 76/68/22 77/69/22 78/70/22
f 73/65/21 76/68/21 78/70/21
s 1
f 64/56/19 71/63/15 65/57/15
f 50/42/15 57/49/15 51/43/16
s 0
f 79/71/2 80/72/2 81/73/2
f 81/73/2 82/74/2 79/71/2
s 1
f 83/75/23 84/76/23 85/77/24
f 85/77/24 86/78/25 83/75/23
f 87/79/26 88/80/27 89/81/27
f 89/81/27 90/82/26 87/79/26
f 91/83/28 92/84/28 93/85/29
f 93/85/29 94/86/30 91/83/28
f 95/87/31 96/88/32 97/89/33
f 97/89/33 98/90/34 95/87/31
f 99/91/35 100/92/36 101/93/37
f 101/93/37 102/94/38 99/91/35
f 98/90/34 97/89/33 86/78/25
f 86/78/25 85/77/24 98/90/34
f 88/80/27 102/94/38 101/93/37
f 101/93/37 89/81/27 88/80/27
s 0
f 103/95/39 104/96/39 105/97/39
f 105/97/39 106/98/39 103/95/39
s 1
f 99/91/35 107/99/40 108/100/41
f 108/100/41 100/92/36 99/91/35
s 0
f 104/96/39 109/101/39 110/102/39
f 110/102/39 105/97/39 104/96/39
s 1
f 111/103/39 112/104/42 113/105/43
f 113/105/43 114/106/39 111/103/39
f 94/86/30 93/85/29 108/100/41
f 108/100/41 107/99/40 94/86/30
f 112/104/42 115/107/32 116/108/31
f 116/108/31 117/109/44 112/104/42
f 118/110/45 113/105/43 112/104/42
f 112/104/42 117/109/44 118/110/45
f 98/90/34 119/111/46 95/87/31
f 120/112/47 121/113/48 122/114/49
f 122/114/49 123/115/47 120/112/47
f 124/116/50 125/117/50 126/118/51
f 126/118/51 127/119/52 124/116/50
f 128/120/39 129/121/53 130/122/54
f 130/122/54 131/123/39 128/120/39
f 132/124/55 133/125/56 134/126/57
f 134/126/57 135/127/58 132/124/55
f 136/128/59 137/129/60 138/130/61
f 138/130/61 139/131/62 136/128/59
f 133/125/56 122/114/49 121/113/48
f 121/113/48 134/126/57 133/125/56
f 127/119/52 126/118/51 138/130/61
f 138/130/61 137/129/60 127/119/52
s 0
f 140/132/28 141/133/28 142/134/28
f 142/134/28 143/135/28 140/132/28
s 1
f 136/128/59 139/131/62 144/136/63
f 144/136/63 145/137/64 136/128/59
s 0
f 143/135/28 142/134/28 146/138/28
f 146/138/28 147/139/28 143/135/28
s 1
f 148/140/28 149/141/28 150/142/65
f 150/142/65 151/143/66 148/140/28
f 129/121/53 145/137/64 144/136/63
f 144/136/63 130/122/54 129/121/53
f 151/143/66 152/144/67 153/145/55
f 153/145/55 154/146/58 151/143/66
s 0
f 155/147/68 156/148/68 157/149/68
f 157/149/68 158/150/68 155/147/68
s 1
f 159/151/69 152/144/67 151/143/66
f 151/143/66 150/142/65 159/151/69
f 133/125/56 132/124/55 160/152/70
s 0
f 161/153/71 162/154/71 163/155/71
f 163/155/71 164/156/71 161/153/71
s 1
f 165/157/72 166/158/72 167/159/72
s 0
f 167/159/72 168/160/72 165/157/72
f 169/161/2 170/162/2 171/163/2
f 171/163/2 172/164/2 169/161/2
f 173/165/73 174/166/73 175/167/73
f 175/167/73 176/168/73 173/165/73
f 177/169/71 178/170/71 163/155/71
f 163/155/71 162/154/71 177/169/71
f 179/171/2 180/172/2 171/163/2
f 171/163/2 170/162/2 179/171/2
f 181/173/74 182/174/74 183/175/74
f 183/175/74 184/176/74 181/173/74
f 185/177/75 186/178/75 187/179/75
f 187/179/75 188/180/75 185/177/75
f 189/181/2 190/182/2 191/183/2
f 191/183/2 192/184/2 189/181/2
f 193/185/1 194/186/1 195/187/1
f 195/187/1 196/188/1 193/185/1
f 197/189/28 198/190/28 199/48/28
f 200/191/28 201/192/28 202/47/28
f 203/193/39 204/67/39 205/66/39
f 206/194/39 203/193/39 205/66/39
f 207/195/39 206/194/39 205/66/39
f 200/191/28 202/47/28 199/48/28
f 199/48/28 208/196/28 200/191/28
f 198/190/28 208/196/28 199/48/28
f 209/197/39 210/62/39 211/198/39
f 212/199/39 213/61/39 214/200/39
f 215/201/28 216/202/28 217/203/28
f 215/201/28 217/203/28 218/204/28
f 219/205/28 215/201/28 218/204/28
f 212/199/39 220/206/39 210/62/39
f 210/62/39 213/61/39 212/199/39
f 211/198/39 210/62/39 220/206/39
s 1
f 221/207/76 222/208/39 223/209/39
f 223/209/39 224/210/76 221/207/76
f 225/211/77 226/212/28 227/213/28
f 227/213/28 228/214/77 225/211/77
f 221/207/76 224/210/76 229/215/78
f 229/215/78 230/216/78 221/207/76
f 225/211/77 228/214/77 231/217/79
f 231/217/79 232/218/79 225/211/77
s 0
f 233/219/1 234/220/1 235/221/1
f 235/221/1 236/222/1 233/219/1
f 237/223/2 238/224/2 239/225/2
f 239/225/2 240/226/2 237/223/2
f 241/227/1 242/228/1 243/229/1
f 243/229/1 244/230/1 241/227/1
f 245/231/2 246/232/2 247/233/2
f 247/233/2 248/234/2 245/231/2
s 1
f 249/235/80 250/236/81 251/237/82
f 251/237/82 252/238/80 249/235/80
f 253/239/83 254/240/84 255/241/85
f 255/241/85 256/242/83 253/239/83
f 257/243/86 258/244/86 259/245/87
f 259/245/87 260/246/88 257/243/86
f 261/247/89 262/248/90 263/249/91
f 264/250/92 265/251/93 266/252/94
f 266/252/94 267/253/95 264/250/92
f 268/254/96 269/255/97 270/256/98
f 270/256/98 271/257/98 268/254/96
f 250/236/81 264/250/92 267/253/95
f 267/253/95 251/237/82 250/236/81
f 254/240/84 271/257/98 270/256/98
f 270/256/98 255/241/85 254/240/84
f 262/248/90 272/258/90 263/249/91
f 265/251/93 273/259/99 274/260/100
f 274/260/100 266/252/94 265/251/93
f 268/254/96 275/261/101 269/255/97
f 260/246/88 259/245/87 274/260/100
f 274/260/100 273/259/99 260/246/88
f 261/247/89 263/249/91 276/262/102
f 276/262/102 277/263/103 261/247/89
f 278/264/104 279/265/105 280/266/106
f 280/266/106 281/267/104 278/264/104
f 279/265/105 282/268/107 283/269/107
f 283/269/107 280/266/106 279/265/105
f 275/261/101 261/247/89 277/263/103
f 277/263/103 284/270/108 275/261/101
f 269/255/97 275/261/101 284/270/108
s 0
f 285/271/109 286/272/109 287/273/109
f 287/273/109 288/274/109 285/271/109
s 1
f 289/275/80 290/276/80 291/277/82
f 291/277/82 292/278/81 289/275/80
f 293/279/83 294/280/83 295/281/110
f 295/281/110 296/282/84 293/279/83
f 297/283/86 298/284/88 299/285/87
f 299/285/87 300/286/86 297/283/86
f 301/287/111 302/288/112 303/289/90
f 304/290/92 305/291/95 306/292/94
f 306/292/94 307/293/93 304/290/92
f 308/294/96 309/295/98 310/296/98
f 310/296/98 311/297/97 308/294/96
f 292/278/81 291/277/82 305/291/95
f 305/291/95 304/290/92 292/278/81
f 296/282/84 295/281/110 310/296/98
f 310/296/98 309/295/98 296/282/84
f 303/289/90 302/288/112 312/298/90
f 307/293/93 306/292/94 313/299/100
f 313/299/100 314/300/99 307/293/93
f 308/294/96 311/297/97 315/301/101
f 298/284/88 314/300/99 313/299/100
f 313/299/100 299/285/87 298/284/88
f 301/287/111 316/302/113 317/303/114
f 317/303/114 302/288/112 301/287/111
f 318/304/115 319/305/115 320/306/106
f 320/306/106 321/307/105 318/304/115
f 321/307/105 320/306/106 322/308/116
f 322/308/116 323/309/116 321/307/105
f 315/301/101 324/310/108 316/302/113
f 316/302/113 301/287/111 315/301/101
f 311/297/97 324/310/108 315/301/101
f 325/311/97 326/312/97 327/313/108
f 327/313/108 328/314/108 325/311/97
f 329/315/117 330/316/118 331/317/119
f 331/317/119 332/318/117 329/315/117
s 0
f 333/319/117 329/315/117 332/318/117
s 1
f 332/318/117 334/320/120 333/319/117
f 335/321/121 333/319/117 334/320/120
s 0
f 336/156/28 337/322/28 338/323/28
f 338/323/122 339/324/28 336/156/28
f 337/322/123 340/172/123 341/325/123
f 341/325/123 338/323/123 337/322/123
s 1
f 334/320/120 342/326/124 343/327/125
f 343/327/125 335/321/121 334/320/120
f 344/328/126 345/329/126 346/330/127
f 346/330/127 347/331/128 344/328/126
f 346/330/127 331/317/119 330/316/118
f 330/316/118 347/331/128 346/330/127
f 348/332/126 342/326/124 345/329/126
s 0
f 345/329/126 344/328/126 348/332/126
s 1
f 343/327/125 342/326/124 348/332/126
s 0
f 349/170/39 350/333/39 351/334/129
f 351/334/39 352/335/39 349/170/39
f 352/335/130 351/334/130 353/336/130
f 353/336/130 354/164/130 352/335/130
f 355/337/131 356/338/131 357/339/131
f 357/339/131 358/340/131 355/337/131
f 359/341/132 360/342/132 361/343/132
f 361/343/132 362/344/132 359/341/132
f 363/227/1 364/228/1 365/229/1
f 365/229/1 366/230/1 363/227/1
f 367/231/2 368/232/2 369/233/2
f 369/233/2 370/234/2 367/231/2
s 1
f 371/345/77 372/346/77 373/347/28
f 373/347/28 374/348/28 371/345/77
f 375/349/76 376/350/76 377/351/39
f 377/351/39 378/352/39 375/349/76
f 371/345/77 379/353/79 380/354/79
f 380/354/79 372/346/77 371/345/77
f 375/349/76 381/355/78 382/356/78
f 382/356/78 376/350/76 375/349/76
s 0
f 383/227/1 384/230/1 385/229/1
f 385/229/1 386/228/1 383/227/1
f 387/231/2 388/234/2 389/233/2
f 389/233/2 390/232/2 387/231/2
f 391/357/2 392/358/2 393/359/2
f 393/359/2 394/360/2 391/357/2
f 395/361/1 396/362/1 397/363/1
f 397/363/1 398/364/1 395/361/1
f 399/365/1 400/366/1 401/367/1
f 401/367/1 402/368/1 399/365/1
f 403/369/2 404/370/2 405/371/2
f 405/371/2 406/372/2 403/369/2
f 407/373/1 408/374/1 409/375/1
f 409/375/1 410/376/1 407/373/1
f 411/377/2 412/378/2 413/379/2
f 413/379/2 414/380/2 411/377/2
f 415/365/1 416/368/1 417/367/1
f 417/367/1 418/366/1 415/365/1
f 419/369/2 420/372/2 421/371/2
f 421/371/2 422/370/2 419/369/2
s 1
f 423/381/133 424/4/21 425/3/21
f 425/3/21 426/382/133 423/381/133
f 426/382/133 427/383/134 428/384/134
f 428/384/134 423/381/133 426/382/133
f 429/6/15 430/5/15 431/385/135
f 431/385/135 432/386/135 429/6/15
f 431/385/135 433/387/136 434/388/136
f 434/388/136 432/386/135 431/385/135
f 435/389/137 436/390/138 437/391/139
f 437/391/139 438/392/140 435/389/137
f 439/393/141 440/394/142 441/395/28
f 441/395/28 442/396/143 439/393/141
f 443/397/1 444/398/1 445/399/144
f 445/399/144 446/400/1 443/397/1
f 447/401/145 441/395/28 448/402/146
f 449/403/147 450/404/148 436/390/138
f 436/390/138 435/389/137 449/403/147
f 451/405/149 452/406/150 453/407/151
f 453/407/151 445/399/144 451/405/149
f 451/405/149 454/408/152 455/409/153
f 455/409/153 456/410/154 451/405/149
f 440/394/142 439/393/141 450/404/148
f 450/404/148 449/403/147 440/394/142
f 456/410/154 457/411/155 452/406/150
f 452/406/150 451/405/149 456/410/154
f 451/405/149 445/399/144 458/412/156
f 458/412/156 454/408/152 451/405/149
f 459/20/157 460/19/158 461/413/159
f 461/413/159 462/414/160 459/20/157
f 463/415/143 464/21/161 465/12/162
f 465/12/162 466/416/163 463/415/143
f 466/416/163 465/12/162 467/11/164
f 467/11/164 468/417/148 466/416/163
f 469/418/148 467/11/164 459/20/157
f 459/20/157 462/414/160 469/418/148
f 470/419/165 449/403/147 435/389/137
f 435/389/137 471/420/166 470/419/165
f 472/421/167 440/394/142 449/403/147
f 449/403/147 470/419/165 472/421/167
s 0
f 473/422/1 444/398/1 443/397/1
s 1
f 445/399/144 474/423/168 475/424/1
f 475/424/1 446/400/1 445/399/144
f 440/394/142 472/421/167 448/402/146
f 448/402/146 441/395/28 440/394/142
f 445/399/144 453/407/151 476/425/169
f 476/425/169 474/423/168 445/399/144
f 477/426/170 473/422/1 443/397/1
f 477/426/170 443/397/1 478/427/1
f 479/428/170 477/426/170 478/427/1
f 480/429/1 479/428/170 478/427/1
f 481/430/171 482/431/171 477/426/170
f 477/426/170 479/428/170 481/430/171
f 483/432/172 484/433/173 485/434/174
f 485/434/174 486/435/175 483/432/172
f 478/427/1 475/424/1 474/423/168
f 474/423/168 487/436/1 478/427/1
f 488/437/176 489/438/177 485/434/174
f 490/439/178 438/392/140 437/391/139
f 437/391/139 491/440/179 490/439/178
f 492/441/180 474/423/168 476/425/169
f 476/425/169 493/442/181 492/441/180
f 492/441/180 494/443/177 495/444/182
f 495/444/182 496/445/183 492/441/180
f 486/435/175 490/439/178 491/440/179
f 491/440/179 483/432/172 486/435/175
f 494/443/177 492/441/180 493/442/181
f 493/442/181 497/446/184 494/443/177
f 492/441/180 496/445/183 498/447/185
f 498/447/185 474/423/168 492/441/180
f 499/448/173 500/449/172 501/9/186
f 501/9/186 502/22/187 499/448/173
f 500/449/172 503/450/179 504/10/188
f 504/10/188 501/9/186 500/449/172
f 505/451/179 461/413/159 460/19/158
f 460/19/158 504/10/188 505/451/179
f 506/452/189 507/453/190 438/392/140
f 438/392/140 490/439/178 506/452/189
f 508/454/191 506/452/189 490/439/178
f 490/439/178 486/435/175 508/454/191
s 0
f 480/429/1 478/427/1 487/436/1
s 1
f 486/435/175 485/434/174 489/438/177
f 489/438/177 508/454/191 486/435/175
f 471/420/166 435/389/137 438/392/140
f 438/392/140 507/453/190 471/420/166
s 0
f 509/455/15 510/456/15 511/457/15
f 511/457/15 512/458/15 509/455/15
s 1
f 513/459/15 514/460/192 515/461/192
f 515/461/192 516/462/15 513/459/15
f 517/463/192 482/431/171 481/430/171
f 481/430/171 518/464/192 517/463/192
f 474/423/168 498/447/185 487/436/1
f 444/398/1 458/412/156 445/399/144
f 519/465/193 520/466/21 521/467/21
f 521/467/21 522/468/193 519/465/193
f 523/469/194 524/470/15 525/471/15
f 525/471/15 526/472/194 523/469/194
f 519/465/193 522/468/193 527/473/195
f 527/473/195 528/474/195 519/465/193
f 523/469/194 526/472/194 529/475/196
f 529/475/196 530/476/196 523/469/194
s 0
f 531/477/21 532/478/21 533/479/21
f 533/479/21 534/480/21 531/477/21
f 535/481/15 536/482/15 537/483/15
f 537/483/15 538/484/15 535/481/15
f 539/485/39 540/486/39 541/487/39
f 541/487/39 542/488/39 539/485/39
f 543/489/28 544/490/28 545/491/28
f 545/491/28 546/492/28 543/489/28
f 547/493/2 548/76/2 549/75/2
f 549/75/2 550/494/2 547/493/2
f 551/96/197 552/95/197 553/495/197
f 553/495/197 554/496/197 551/96/197
s 1
f 555/26/39 556/25/39 557/497/198
f 557/497/198 558/498/199 555/26/39
f 559/499/200 560/500/201 561/105/202
f 561/105/202 562/110/203 559/499/200
f 558/498/199 557/497/198 563/501/204
f 563/501/204 564/502/204 558/498/199
s 0
f 565/503/205 566/504/205 567/505/205
f 567/505/205 568/506/205 565/503/205
f 569/507/2 570/508/2 571/112/2
f 571/112/2 572/115/2 569/507/2
f 573/135/197 574/509/197 575/510/197
f 575/510/197 576/132/197 573/135/197
s 1
f 577/33/28 578/511/206 579/512/207
f 579/512/207 580/34/28 577/33/28
f 581/513/208 582/151/209 583/142/210
f 583/142/210 584/514/211 581/513/208
f 578/511/206 585/515/212 586/516/212
f 586/516/212 579/512/207 578/511/206
f 587/517/213 588/518/214 589/519/215
f 589/519/215 590/520/216 587/517/213
f 591/521/217 592/522/218 593/523/219
f 593/523/219 594/524/220 591/521/217
f 595/525/221 591/521/217 594/524/220
f 594/524/220 596/526/222 595/525/221
f 597/527/223 595/525/221 596/526/222
f 596/526/222 598/528/224 597/527/223
f 599/529/225 600/530/226 601/531/227
f 601/531/227 602/532/228 599/529/225
f 603/533/229 599/529/225 602/532/228
f 602/532/228 604/534/229 603/533/229
f 587/517/213 592/522/218 591/521/217
f 591/521/217 588/518/214 587/517/213
f 588/518/214 591/521/217 595/525/221
f 595/525/221 605/535/230 588/518/214
f 605/535/230 595/525/221 597/527/223
f 597/527/223 606/536/231 605/535/230
f 606/536/231 607/537/223 608/538/232
f 608/538/232 609/539/233 606/536/231
f 610/155/90 611/540/234 612/322/234
f 612/322/234 613/156/90 610/155/90
f 614/541/218 587/517/213 590/520/216
f 590/520/216 615/542/235 614/541/218
f 588/518/214 605/535/230 616/543/236
f 616/543/236 589/519/215 588/518/214
f 605/535/230 606/536/231 609/539/233
f 609/539/233 616/543/236 605/535/230
f 617/544/237 618/545/238 619/546/239
f 619/546/239 620/547/235 617/544/237
f 615/542/235 621/548/240 622/549/241
f 622/549/241 614/541/218 615/542/235
f 623/550/242 624/551/243 618/545/238
f 618/545/238 617/544/237 623/550/242
f 625/552/232 626/553/244 624/551/243
f 624/551/243 623/550/242 625/552/232
f 627/554/245 628/555/246 629/556/247
f 629/556/247 630/557/248 627/554/245
f 631/558/249 632/559/249 628/555/246
f 628/555/246 627/554/245 631/558/249
f 590/520/216 589/519/215 617/544/237
f 617/544/237 620/547/235 590/520/216
f 589/519/215 616/543/236 623/550/242
f 623/550/242 617/544/237 589/519/215
f 616/543/236 609/539/233 625/552/232
f 625/552/232 623/550/242 616/543/236
f 633/164/250 634/163/250 611/540/234
f 611/540/234 635/335/234 633/164/250
f 607/537/223 636/560/251 637/561/252
f 637/561/252 608/538/232 607/537/223
f 638/170/90 635/335/234 611/540/234
f 611/540/234 610/155/90 638/170/90
f 639/172/250 612/322/234 611/540/234
f 611/540/234 634/163/250 639/172/250
s 0
f 640/562/28 641/563/28 642/564/28
f 642/564/28 643/565/28 640/562/28
f 644/566/39 645/567/39 646/568/39
f 646/568/39 647/569/39 644/566/39
f 648/485/15 649/486/15 650/487/15
f 650/487/15 651/488/15 648/485/15
f 652/489/21 653/490/21 654/491/21
f 654/491/21 655/492/21 652/489/21
s 1
f 656/570/193 657/571/193 658/572/21
f 658/572/21 659/573/21 656/570/193
f 660/574/194 661/575/194 662/576/15
f 662/576/15 663/577/15 660/574/194
f 656/570/193 664/578/195 665/579/195
f 665/579/195 657/571/193 656/570/193
f 660/574/194 666/580/196 667/581/196
f 667/581/196 661/575/194 660/574/194
s 0
f 668/485/28 669/488/28 670/487/28
f 670/487/28 671/486/28 668/485/28
f 672/489/39 673/492/39 674/491/39
f 674/491/39 675/490/39 672/489/39
f 676/582/21 677/583/21 678/584/21
f 678/584/21 679/585/21 676/582/21
f 680/586/15 681/587/15 682/588/15
f 682/588/15 683/589/15 680/586/15
f 684/590/39 685/591/39 686/592/39
f 686/592/39 687/593/39 684/590/39
f 688/594/28 689/595/28 690/596/28
f 690/596/28 691/597/28 688/594/28
f 692/598/15 693/599/15 694/600/15
f 694/600/15 695/601/15 692/598/15
f 696/602/21 697/603/21 698/604/21
f 698/604/21 699/605/21 696/602/21
f 700/590/28 701/593/28 702/592/28
f 702/592/28 703/591/28 700/590/28
f 704/594/39 705/597/39 706/596/39
f 706/596/39 707/595/39 704/594/39
s 1
f 708/606/253 709/607/253 710/608/254
f 710/608/254 711/609/254 708/606/253
f 709/607/253 708/606/253 712/2/28
f 712/2/28 713/1/28 709/607/253
f 714/610/255 715/611/256 716/612/256
f 716/612/256 717/613/255 714/610/255
f 717/613/255 718/8/39 719/7/39
f 719/7/39 714/610/255 717/613/255
