# Blender 4.5.3 LTS
# www.blender.org
mtllib chair.mtl
o SM_Wooden_Chair
v 0.000000 23.380750 0.039795
v 1.521168 23.057655 7.124917
v -1.521168 23.057655 7.124917
v -3.934295 23.057655 6.125342
v -6.085550 23.057655 3.974092
v -7.085125 23.057655 1.560987
v -7.085125 23.057655 -1.481355
v -6.085550 23.057655 -3.894483
v -3.934295 23.057655 -6.045738
v -1.521168 23.057655 -7.045313
v 1.521168 23.057655 -7.045313
v 3.934295 23.057655 -6.045738
v 6.085550 23.057655 -3.894483
v 7.085125 23.057655 -1.481355
v 7.085125 23.057655 1.560987
v 6.085550 23.057655 3.974092
v 3.934295 23.057655 6.125342
v 0.000000 21.776250 0.039795
v -1.521450 22.559845 6.968093
v 1.521450 22.559845 6.968093
v -5.974888 22.559845 3.863050
v -3.823250 22.559845 6.014637
v -6.928313 22.559845 -1.481642
v -6.928313 22.559845 1.561250
v -3.823250 22.559845 -5.935075
v -5.974888 22.559845 -3.783437
v 1.521450 22.559845 -6.888513
v -1.521450 22.559845 -6.888513
v 5.974888 22.559845 -3.783437
v 3.823250 22.559845 -5.935075
v 6.928313 22.559845 1.561250
v 6.928313 22.559845 -1.481642
v 3.823250 22.559845 6.014637
v 5.974888 22.559845 3.863050
v -5.800658 23.380750 3.688155
v -3.648362 23.380750 5.840467
v -6.681487 23.380750 -1.482112
v -6.681487 23.380750 1.561670
v -3.648362 23.380750 -5.760857
v -5.800658 23.380750 -3.608562
v 1.521925 23.380750 -6.641687
v -1.521875 23.380750 -6.641687
v 5.800658 23.380750 -3.608562
v 3.648362 23.380750 -5.760857
v 6.681487 23.380750 1.561670
v 6.681487 23.380750 -1.482112
v 3.648362 23.380750 5.840467
v 5.800658 23.380750 3.688155
v -1.521875 23.380750 6.721250
v 1.521925 23.380750 6.721250
v -3.023200 21.776250 5.216142
v -5.176333 21.776250 3.063000
v 1.522470 21.776250 5.837733
v -1.522470 21.776250 5.837733
v -5.797918 21.776250 1.562267
v -5.797918 21.776250 -1.482655
v -5.176333 21.776250 -2.983395
v -3.023200 21.776250 -5.136532
v -1.522470 21.776250 -5.758125
v 1.522470 21.776250 -5.758125
v 3.023200 21.776250 -5.136532
v 5.176333 21.776250 -2.983395
v 5.797918 21.776250 -1.482655
v 5.797918 21.776250 1.562267
v 5.176333 21.776250 3.063000
v 3.023200 21.776250 5.216142
v -6.416987 -0.680438 6.637770
v -3.953905 22.082342 2.839012
v -3.472768 22.082342 3.038325
v -3.273480 22.082342 3.519455
v -3.472768 22.082342 4.000550
v -3.953905 22.082342 4.199842
v -4.435000 22.082342 4.000550
v -4.634295 22.082342 3.519455
v -4.435000 22.082342 3.038325
v -6.416987 -0.680438 5.957387
v -5.935858 -0.680438 6.156670
v -5.736592 -0.680438 6.637770
v -5.935858 -0.680438 7.118905
v -6.416987 -0.680438 7.318207
v -6.898125 -0.680438 7.118905
v -7.097417 -0.680438 6.637770
v -6.898125 -0.680438 6.156670
v 6.416987 -0.680438 6.637770
v 3.953905 22.082342 2.839012
v 3.472768 22.082342 3.038325
v 3.273480 22.082342 3.519455
v 3.472768 22.082342 4.000550
v 3.953905 22.082342 4.199842
v 4.435000 22.082342 4.000550
v 4.634295 22.082342 3.519455
v 4.435000 22.082342 3.038325
v 6.416987 -0.680438 5.957387
v 5.935858 -0.680438 6.156670
v 5.736592 -0.680438 6.637770
v 5.935858 -0.680438 7.118905
v 6.416987 -0.680438 7.318207
v 6.898125 -0.680438 7.118905
v 7.097417 -0.680438 6.637770
v 6.898125 -0.680438 6.156670
v -6.416987 -0.680438 -6.637770
v -3.953905 22.082342 -2.839012
v -3.472768 22.082342 -3.038325
v -3.273480 22.082342 -3.519455
v -3.472768 22.082342 -4.000592
v -3.953905 22.082342 -4.199842
v -4.435000 22.082342 -4.000592
v -4.634295 22.082342 -3.519455
v -4.435000 22.082342 -3.038325
v -6.416987 -0.680438 -5.957387
v -5.935858 -0.680438 -6.156670
v -5.736592 -0.680438 -6.637770
v -5.935858 -0.680438 -7.118905
v -6.416987 -0.680438 -7.318207
v -6.898125 -0.680438 -7.118905
v -7.097417 -0.680438 -6.637770
v -6.898125 -0.680438 -6.156670
v 6.416987 -0.680438 -6.637770
v 3.953905 22.082342 -2.839012
v 3.472768 22.082342 -3.038325
v 3.273480 22.082342 -3.519455
v 3.472768 22.082342 -4.000592
v 3.953905 22.082342 -4.199842
v 4.435000 22.082342 -4.000592
v 4.634295 22.082342 -3.519455
v 4.435000 22.082342 -3.038325
v 6.416987 -0.680438 -5.957387
v 5.935858 -0.680438 -6.156670
v 5.736592 -0.680438 -6.637770
v 5.935858 -0.680438 -7.118905
v 6.416987 -0.680438 -7.318207
v 6.898125 -0.680438 -7.118905
v 7.097417 -0.680438 -6.637770
v 6.898125 -0.680438 -6.156670
v 4.803550 10.245625 4.823950
v 4.803550 10.245625 -4.823950
v 4.921770 9.960237 4.823950
v 4.921770 9.960237 -4.823950
v 5.207143 9.842030 4.823950
v 5.207143 9.842030 -4.823950
v 5.492543 9.960237 4.823950
v 5.492543 9.960237 -4.823950
v 5.610750 10.245625 4.823950
v 5.610750 10.245625 -4.823950
v 5.492543 10.531013 4.823950
v 5.492543 10.531013 -4.823950
v 5.207143 10.649220 4.823950
v 5.207143 10.649220 -4.823950
v 4.921770 10.531013 4.823950
v 4.921770 10.531013 -4.823950
v -4.803550 10.245625 4.823950
v -4.803550 10.245625 -4.823950
v -4.921770 9.960237 4.823950
v -4.921770 9.960237 -4.823950
v -5.207143 9.842030 4.823950
v -5.207143 9.842030 -4.823950
v -5.492543 9.960237 4.823950
v -5.492543 9.960237 -4.823950
v -5.610750 10.245625 4.823950
v -5.610750 10.245625 -4.823950
v -5.492543 10.531013 4.823950
v -5.492543 10.531013 -4.823950
v -5.207143 10.649220 4.823950
v -5.207143 10.649220 -4.823950
v -4.921770 10.531013 4.823950
v -4.921770 10.531013 -4.823950
v 4.823950 10.245625 5.592970
v -4.823950 10.245625 5.592970
v 4.823950 9.960237 5.474762
v -4.823950 9.960237 5.474762
v 4.823950 9.842030 5.189375
v -4.823950 9.842030 5.189375
v 4.823950 9.960237 4.903982
v -4.823950 9.960237 4.903982
v 4.823950 10.245625 4.785780
v -4.823950 10.245625 4.785780
v 4.823950 10.531013 4.903982
v -4.823950 10.531013 4.903982
v 4.823950 10.649220 5.189375
v -4.823950 10.649220 5.189375
v 4.823950 10.531013 5.474762
v -4.823950 10.531013 5.474762
v 4.823950 10.245625 -5.592970
v -4.823950 10.245625 -5.592970
v 4.823950 9.960237 -5.474762
v -4.823950 9.960237 -5.474762
v 4.823950 9.842030 -5.189375
v -4.823950 9.842030 -5.189375
v 4.823950 9.960237 -4.903982
v -4.823950 9.960237 -4.903982
v 4.823950 10.245625 -4.785780
v -4.823950 10.245625 -4.785780
v 4.823950 10.531013 -4.903982
v -4.823950 10.531013 -4.903982
v 4.823950 10.649220 -5.189375
v -4.823950 10.649220 -5.189375
v 4.823950 10.531013 -5.474762
v -4.823950 10.531013 -5.474762
vn -0.1798 -0.2955 0.9383
vn -0.5363 -0.2955 0.7906
vn -0.4574 -0.5692 0.6832
vn -0.1596 -0.5692 0.8065
vn -0.5363 -0.2955 -0.7906
vn -0.1798 -0.2955 -0.9383
vn -0.1596 -0.5692 -0.8065
vn -0.4574 -0.5692 -0.6832
vn 0.1798 -0.2955 -0.9383
vn 0.5363 -0.2955 -0.7906
vn 0.4574 -0.5692 -0.6832
vn 0.1596 -0.5692 -0.8065
vn 0.7906 -0.2955 -0.5363
vn 0.9383 -0.2954 -0.1798
vn 0.8065 -0.5692 -0.1596
vn 0.6832 -0.5692 -0.4574
vn 0.9383 -0.2954 0.1798
vn 0.7906 -0.2955 0.5363
vn 0.6832 -0.5692 0.4574
vn 0.8065 -0.5692 0.1596
vn 0.1596 -0.5692 0.8065
vn 0.0737 -0.9413 0.3295
vn 0.1809 -0.9413 0.2851
vn 0.4574 -0.5692 0.6832
vn -0.7906 -0.2955 0.5363
vn -0.9383 -0.2955 0.1798
vn -0.8065 -0.5692 0.1596
vn -0.6832 -0.5692 0.4574
vn -0.9383 -0.2955 -0.1798
vn -0.7906 -0.2955 -0.5363
vn -0.6832 -0.5692 -0.4574
vn -0.8065 -0.5692 -0.1596
vn 0.2003 0.9278 0.3147
vn 0.0809 0.9278 0.3641
vn 0.1127 0.7756 0.6210
vn 0.3594 0.7756 0.5188
vn -0.3147 0.9278 0.2003
vn -0.3641 0.9278 0.0809
vn -0.6210 0.7756 0.1127
vn -0.5188 0.7756 0.3594
vn 0.5363 -0.2955 0.7906
vn 0.1798 -0.2955 0.9383
vn 0.3641 0.9278 0.0809
vn 0.3147 0.9278 0.2003
vn 0.5188 0.7756 0.3594
vn 0.6210 0.7756 0.1127
vn 0.3147 0.9278 -0.2003
vn 0.3641 0.9278 -0.0809
vn 0.6210 0.7756 -0.1127
vn 0.5188 0.7756 -0.3594
vn 0.0809 0.9278 -0.3641
vn 0.2003 0.9278 -0.3147
vn 0.3594 0.7756 -0.5188
vn 0.1127 0.7756 -0.6210
vn -0.2003 0.9278 -0.3147
vn -0.0809 0.9278 -0.3641
vn -0.1127 0.7756 -0.6210
vn -0.3594 0.7756 -0.5188
vn -0.3641 0.9278 -0.0809
vn -0.3147 0.9278 -0.2003
vn -0.5188 0.7756 -0.3594
vn -0.6210 0.7756 -0.1127
vn -0.2851 -0.9413 -0.1809
vn -0.3295 -0.9413 -0.0737
vn -0.0737 -0.9413 -0.3295
vn -0.1809 -0.9413 -0.2851
vn 0.1809 -0.9413 -0.2851
vn 0.0737 -0.9413 -0.3295
vn 0.3295 -0.9413 -0.0737
vn 0.2851 -0.9413 -0.1809
vn 0.2851 -0.9413 0.1809
vn 0.3295 -0.9413 0.0737
vn -0.1809 -0.9413 0.2851
vn -0.0737 -0.9413 0.3295
vn -0.3295 -0.9413 0.0737
vn -0.2851 -0.9413 0.1809
vn -0.3594 0.7756 0.5188
vn -0.2003 0.9278 0.3147
vn -0.0809 0.9278 0.3641
vn -0.1127 0.7756 0.6210
vn -0.0000 1.0000 -0.0000
vn -0.0000 -1.0000 -0.0000
vn -0.0271 -0.1328 -0.9908
vn 0.0246 -0.1383 -0.9901
vn 0.6935 -0.1709 -0.6999
vn 0.7003 -0.1707 -0.6931
vn 0.9932 -0.1118 -0.0315
vn 0.9941 -0.1029 0.0341
vn 0.7362 0.0130 0.6767
vn 0.6769 0.0275 0.7355
vn 0.0271 0.1328 0.9908
vn -0.0246 0.1383 0.9901
vn -0.7003 0.1707 0.6931
vn -0.6935 0.1709 0.6999
vn -0.9941 0.1029 -0.0341
vn -0.9932 0.1118 0.0315
vn -0.6769 -0.0275 -0.7355
vn -0.7362 -0.0130 -0.6767
vn 0.0271 -0.1328 -0.9908
vn -0.7003 -0.1707 -0.6931
vn -0.6935 -0.1709 -0.6999
vn -0.0246 -0.1383 -0.9901
vn -0.9941 -0.1029 0.0341
vn -0.9932 -0.1118 -0.0315
vn -0.6769 0.0275 0.7355
vn -0.7362 0.0130 0.6767
vn 0.0246 0.1383 0.9901
vn -0.0271 0.1328 0.9908
vn 0.6935 0.1709 0.6999
vn 0.7003 0.1707 0.6931
vn 0.9932 0.1118 0.0315
vn 0.9941 0.1029 -0.0341
vn 0.7362 -0.0130 -0.6767
vn 0.6769 -0.0275 -0.7355
vn -0.0271 -0.1328 0.9908
vn 0.7003 -0.1707 0.6931
vn 0.6935 -0.1709 0.6999
vn 0.0246 -0.1383 0.9901
vn 0.9941 -0.1029 -0.0341
vn 0.9932 -0.1118 0.0315
vn 0.6769 0.0275 -0.7355
vn 0.7362 0.0130 -0.6767
vn -0.0246 0.1383 -0.9901
vn 0.0271 0.1328 -0.9908
vn -0.6935 0.1709 -0.6999
vn -0.7003 0.1707 -0.6931
vn -0.9932 0.1118 -0.0315
vn -0.9941 0.1029 0.0341
vn -0.7362 -0.0130 0.6767
vn -0.6769 -0.0275 0.7355
vn 0.0271 -0.1328 0.9908
vn -0.0246 -0.1383 0.9901
vn -0.6935 -0.1709 0.6999
vn -0.7003 -0.1707 0.6931
vn -0.9932 -0.1118 0.0315
vn -0.9941 -0.1029 -0.0341
vn -0.7362 0.0130 -0.6767
vn -0.6769 0.0275 -0.7355
vn -0.0271 0.1328 -0.9908
vn 0.0246 0.1383 -0.9901
vn 0.7003 0.1707 -0.6931
vn 0.6935 0.1709 -0.6999
vn 0.9941 0.1029 0.0341
vn 0.9932 0.1118 -0.0315
vn 0.6769 -0.0275 0.7355
vn 0.7362 -0.0130 0.6767
vn -1.0000 -0.0000 -0.0000
vn -0.7071 -0.7071 -0.0000
vn 0.7071 -0.7071 -0.0000
vn 1.0000 -0.0000 -0.0000
vn 0.7071 0.7071 -0.0000
vn -0.7071 0.7071 -0.0000
vn -0.0000 -0.0000 1.0000
vn -0.0000 -0.7071 0.7071
vn -0.0000 -0.7071 -0.7071
vn -0.0000 -0.0000 -1.0000
vn -0.0000 0.7071 -0.7071
vn -0.0000 0.7071 0.7071
vt 0.205672 0.470741
vt 0.121821 0.504849
vt 0.132588 0.519555
vt 0.208053 0.488713
vt 0.125210 0.926355
vt 0.209089 0.959841
vt 0.211411 0.942290
vt 0.136071 0.911336
vt 0.314297 0.959154
vt 0.397018 0.922061
vt 0.385685 0.907989
vt 0.311243 0.940802
vt 0.468393 0.846319
vt 0.501019 0.764411
vt 0.483896 0.762094
vt 0.453844 0.836080
vt 0.501019 0.661805
vt 0.466378 0.579825
vt 0.451970 0.590404
vt 0.483418 0.664269
vt 0.307835 0.488562
vt 0.305869 0.533011
vt 0.352776 0.552849
vt 0.382295 0.519904
vt 0.046965 0.580410
vt 0.013064 0.664642
vt 0.030669 0.666960
vt 0.062044 0.591474
vt 0.014326 0.769989
vt 0.049911 0.853047
vt 0.063925 0.842247
vt 0.032659 0.767075
vt 0.711836 0.924271
vt 0.644307 0.896554
vt 0.632986 0.908954
vt 0.710987 0.941090
vt 0.547644 0.663327
vt 0.575121 0.596037
vt 0.562812 0.584871
vt 0.530893 0.662494
vt 0.393288 0.505680
vt 0.310650 0.470760
vt 0.877168 0.895906
vt 0.809481 0.924040
vt 0.810373 0.941074
vt 0.888587 0.908276
vt 0.972799 0.759792
vt 0.945420 0.827100
vt 0.957732 0.838213
vt 0.989553 0.760604
vt 0.944329 0.594760
vt 0.972444 0.662347
vt 0.989444 0.661446
vt 0.956680 0.583357
vt 0.808456 0.499178
vt 0.875629 0.526585
vt 0.886730 0.514300
vt 0.809304 0.482484
vt 0.643864 0.527372
vt 0.711385 0.499088
vt 0.710636 0.482262
vt 0.632445 0.514791
vt 0.096608 0.811626
vt 0.077106 0.764384
vt 0.212601 0.897463
vt 0.165465 0.878002
vt 0.355422 0.875497
vt 0.308626 0.896202
vt 0.439965 0.760790
vt 0.420871 0.807251
vt 0.419408 0.620005
vt 0.439424 0.666437
vt 0.162914 0.552571
vt 0.210344 0.533349
vt 0.075585 0.668531
vt 0.095422 0.621283
vt 0.530893 0.761566
vt 0.547851 0.760705
vt 0.575658 0.828148
vt 0.563383 0.839361
vt 0.760222 0.711580
vt 0.258627 0.715093
vt 0.899062 0.071183
vt 0.088977 0.071183
vt 0.088122 0.052946
vt 0.898207 0.052946
vt 0.898207 0.197915
vt 0.088122 0.197915
vt 0.089654 0.179723
vt 0.899738 0.179723
vt 0.092675 0.161718
vt 0.902759 0.161718
vt 0.095415 0.143668
vt 0.905500 0.143668
vt 0.096271 0.125431
vt 0.906355 0.125431
vt 0.094739 0.107238
vt 0.904824 0.107238
vt 0.091718 0.089233
vt 0.901803 0.089233
vt 0.237280 0.351436
vt 0.195154 0.368886
vt 0.195154 0.333987
vt 0.219831 0.309311
vt 0.254729 0.309311
vt 0.279405 0.333987
vt 0.279405 0.368885
vt 0.254729 0.393562
vt 0.219831 0.393562
vt 0.900332 0.310843
vt 0.452680 0.310843
vt 0.452680 0.296510
vt 0.900332 0.296510
vt 0.452680 0.282178
vt 0.900332 0.282178
vt 0.900332 0.396837
vt 0.452680 0.396837
vt 0.452680 0.382505
vt 0.900332 0.382505
vt 0.452680 0.368172
vt 0.900332 0.368172
vt 0.452680 0.353840
vt 0.900332 0.353840
vt 0.452680 0.339508
vt 0.900332 0.339507
vt 0.452680 0.325175
vt 0.900332 0.325175
vt 0.900332 0.382505
vt 0.452680 0.282178
vt 0.900332 0.282178
vt 0.900332 0.296510
vt 0.900332 0.310843
vt 0.900332 0.325175
vt 0.900332 0.339507
vt 0.900332 0.353840
s 1
usemtl Material.001
f 3/1/1 4/2/2 22/3/3 19/4/4
f 9/5/5 10/6/6 28/7/7 25/8/8
f 11/9/9 12/10/10 30/11/11 27/12/12
f 13/13/13 14/14/14 32/15/15 29/16/16
f 15/17/17 16/18/18 34/19/19 31/20/20
f 20/21/21 53/22/22 66/23/23 33/24/24
f 5/25/25 6/26/26 24/27/27 21/28/28
f 7/29/29 8/30/30 26/31/31 23/32/32
f 47/33/33 50/34/34 2/35/35 17/36/36
f 35/37/37 38/38/38 6/39/39 5/40/40
f 17/41/41 2/42/42 20/21/21 33/24/24
f 45/43/43 48/44/44 16/45/45 15/46/46
f 43/47/47 46/48/48 14/49/49 13/50/50
f 41/51/51 44/52/52 12/53/53 11/54/54
f 39/55/55 42/56/56 10/57/57 9/58/58
f 37/59/59 40/60/60 8/61/61 7/62/62
f 26/31/31 57/63/63 56/64/64 23/32/32
f 28/7/7 59/65/65 58/66/66 25/8/8
f 30/11/11 61/67/67 60/68/68 27/12/12
f 32/15/15 63/69/69 62/70/70 29/16/16
f 34/19/19 65/71/71 64/72/72 31/20/20
f 22/3/3 51/73/73 54/74/74 19/4/4
f 24/27/27 55/75/75 52/76/76 21/28/28
f 5/40/40 4/77/77 36/78/78 35/37/37
f 7/62/62 6/39/39 38/38/38 37/59/59
f 9/58/58 8/61/61 40/60/60 39/55/55
f 11/54/54 10/57/57 42/56/56 41/51/51
f 13/50/50 12/53/53 44/52/52 43/47/47
f 15/46/46 14/49/49 46/48/48 45/43/43
f 17/36/36 16/45/45 48/44/44 47/33/33
f 50/34/34 49/79/79 3/80/80 2/35/35
f 52/76/76 51/73/73 22/3/3 21/28/28
f 20/21/21 19/4/4 54/74/74 53/22/22
f 56/64/64 55/75/75 24/27/27 23/32/32
f 58/66/66 57/63/63 26/31/31 25/8/8
f 60/68/68 59/65/65 28/7/7 27/12/12
f 62/70/70 61/67/67 30/11/11 29/16/16
f 64/72/72 63/69/69 32/15/15 31/20/20
f 66/23/23 65/71/71 34/19/19 33/24/24
f 2/42/42 3/1/1 19/4/4 20/21/21
f 21/28/28 22/3/3 4/2/2 5/25/25
f 16/18/18 17/41/41 33/24/24 34/19/19
f 23/32/32 24/27/27 6/26/26 7/29/29
f 25/8/8 26/31/31 8/30/30 9/5/5
f 27/12/12 28/7/7 10/6/6 11/9/9
f 29/16/16 30/11/11 12/10/10 13/13/13
f 31/20/20 32/15/15 14/14/14 15/17/17
f 49/79/79 36/78/78 4/77/77 3/80/80
f 1/81/81 35/37/37 36/78/78
f 1/81/81 37/59/59 38/38/38
f 1/81/81 39/55/55 40/60/60
f 1/81/81 41/51/51 42/56/56
f 1/81/81 43/47/47 44/52/52
f 1/81/81 45/43/43 46/48/48
f 1/81/81 47/33/33 48/44/44
f 1/81/81 49/79/79 50/34/34
f 1/81/81 36/78/78 49/79/79
f 1/81/81 50/34/34 47/33/33
f 1/81/81 38/38/38 35/37/37
f 1/81/81 40/60/60 37/59/59
f 1/81/81 42/56/56 39/55/55
f 1/81/81 44/52/52 41/51/51
f 1/81/81 46/48/48 43/47/47
f 1/81/81 48/44/44 45/43/43
f 18/82/82 51/73/73 52/76/76
f 18/82/82 53/22/22 54/74/74
f 18/82/82 55/75/75 56/64/64
f 18/82/82 57/63/63 58/66/66
f 18/82/82 59/65/65 60/68/68
f 18/82/82 61/67/67 62/70/70
f 18/82/82 63/69/69 64/72/72
f 18/82/82 65/71/71 66/23/23
f 18/82/82 66/23/23 53/22/22
f 18/82/82 54/74/74 51/73/73
f 18/82/82 52/76/76 55/75/75
f 18/82/82 64/72/72 65/71/71
f 18/82/82 62/70/70 63/69/69
f 18/82/82 60/68/68 61/67/67
f 18/82/82 58/66/66 59/65/65
f 18/82/82 56/64/64 57/63/63
f 76/83/83 68/84/84 69/85/85 77/86/86
f 77/87/86 69/88/85 70/89/87 78/90/88
f 78/90/88 70/89/87 71/91/89 79/92/90
f 79/92/90 71/91/89 72/93/91 80/94/92
f 80/94/92 72/93/91 73/95/93 81/96/94
f 81/96/94 73/95/93 74/97/95 82/98/96
f 82/98/96 74/97/95 75/99/97 83/100/98
f 83/100/98 75/99/97 68/84/84 76/83/83
f 67/101/82 76/102/82 77/103/82
f 67/101/82 77/103/82 78/104/82
f 67/101/82 78/104/82 79/105/82
f 67/101/82 79/105/82 80/106/82
f 67/101/82 80/106/82 81/107/82
f 67/101/82 81/107/82 82/108/82
f 67/101/82 82/108/82 83/109/82
f 67/101/82 83/109/82 76/102/82
f 93/83/99 94/86/100 86/85/101 85/84/102
f 94/87/100 95/90/103 87/89/104 86/88/101
f 95/90/103 96/92/105 88/91/106 87/89/104
f 96/92/105 97/94/107 89/93/108 88/91/106
f 97/94/107 98/96/109 90/95/110 89/93/108
f 98/96/109 99/98/111 91/97/112 90/95/110
f 99/98/111 100/100/113 92/99/114 91/97/112
f 100/100/113 93/83/99 85/84/102 92/99/114
f 84/101/82 94/103/82 93/102/82
f 84/101/82 95/104/82 94/103/82
f 84/101/82 96/105/82 95/104/82
f 84/101/82 97/106/82 96/105/82
f 84/101/82 98/107/82 97/106/82
f 84/101/82 99/108/82 98/107/82
f 84/101/82 100/109/82 99/108/82
f 84/101/82 93/102/82 100/109/82
f 110/83/115 111/86/116 103/85/117 102/84/118
f 111/87/116 112/90/119 104/89/120 103/88/117
f 112/90/119 113/92/121 105/91/122 104/89/120
f 113/92/121 114/94/123 106/93/124 105/91/122
f 114/94/123 115/96/125 107/95/126 106/93/124
f 115/96/125 116/98/127 108/97/128 107/95/126
f 116/98/127 117/100/129 109/99/130 108/97/128
f 117/100/129 110/83/115 102/84/118 109/99/130
f 101/101/82 111/103/82 110/102/82
f 101/101/82 112/104/82 111/103/82
f 101/101/82 113/105/82 112/104/82
f 101/101/82 114/106/82 113/105/82
f 101/101/82 115/107/82 114/106/82
f 101/101/82 116/108/82 115/107/82
f 101/101/82 117/109/82 116/108/82
f 101/101/82 110/102/82 117/109/82
f 127/83/131 119/84/132 120/85/133 128/86/134
f 128/87/134 120/88/133 121/89/135 129/90/136
f 129/90/136 121/89/135 122/91/137 130/92/138
f 130/92/138 122/91/137 123/93/139 131/94/140
f 131/94/140 123/93/139 124/95/141 132/96/142
f 132/96/142 124/95/141 125/97/143 133/98/144
f 133/98/144 125/97/143 126/99/145 134/100/146
f 134/100/146 126/99/145 119/84/132 127/83/131
f 118/101/82 127/102/82 128/103/82
f 118/101/82 128/103/82 129/104/82
f 118/101/82 129/104/82 130/105/82
f 118/101/82 130/105/82 131/106/82
f 118/101/82 131/106/82 132/107/82
f 118/101/82 132/107/82 133/108/82
f 118/101/82 133/108/82 134/109/82
f 118/101/82 134/109/82 127/102/82
f 135/110/147 136/111/147 138/112/148 137/113/148
f 137/113/148 138/112/148 140/114/82 139/115/82
f 139/116/82 140/117/82 142/118/149 141/119/149
f 141/119/149 142/118/149 144/120/150 143/121/150
f 143/121/150 144/120/150 146/122/151 145/123/151
f 145/123/151 146/122/151 148/124/81 147/125/81
f 147/125/81 148/124/81 150/126/152 149/127/152
f 149/127/152 150/126/152 136/111/147 135/110/147
f 151/110/150 153/113/149 154/112/149 152/111/150
f 153/113/149 155/115/82 156/114/82 154/112/149
f 155/116/82 157/119/148 158/118/148 156/117/82
f 157/119/148 159/121/147 160/120/147 158/118/148
f 159/121/147 161/123/152 162/122/152 160/120/147
f 161/123/152 163/125/81 164/124/81 162/122/152
f 163/125/81 165/127/151 166/126/151 164/124/81
f 165/127/151 151/110/150 152/111/150 166/126/151
f 167/120/153 168/121/153 170/128/154 169/118/154
f 169/118/154 170/128/154 172/116/82 171/117/82
f 171/129/82 172/130/82 174/131/155 173/112/155
f 173/112/155 174/131/155 176/132/156 175/111/156
f 175/111/156 176/132/156 178/133/157 177/126/157
f 177/126/157 178/133/157 180/134/81 179/124/81
f 179/124/81 180/134/81 182/135/158 181/122/158
f 181/122/158 182/135/158 168/121/153 167/120/153
f 183/120/156 185/118/155 186/128/155 184/121/156
f 185/118/155 187/117/82 188/116/82 186/128/155
f 187/129/82 189/112/154 190/131/154 188/130/82
f 189/112/154 191/111/153 192/132/153 190/131/154
f 191/111/153 193/126/158 194/133/158 192/132/153
f 193/126/158 195/124/81 196/134/81 194/133/158
f 195/124/81 197/122/157 198/135/157 196/134/81
f 197/122/157 183/120/156 184/121/156 198/135/157
